<?xml version="1.0" standalone="no"?>
<!DOCTYPE svg PUBLIC "-//W3C//DTD SVG 20010904//EN"
 "http://www.w3.org/TR/2001/REC-SVG-20010904/DTD/svg10.dtd">
<svg version="1.0" xmlns="http://www.w3.org/2000/svg"
 width="1024.000000pt" height="459.000000pt" viewBox="0 0 1024.000000 459.000000"
 preserveAspectRatio="xMidYMid meet">

<g transform="translate(0.000000,459.000000) scale(0.100000,-0.100000)"
fill="#000000" stroke="none">
<path d="M1420 3546 c0 -31 5 -56 10 -56 6 0 10 9 10 19 0 14 8 21 28 23 23 3
27 8 27 33 0 27 -3 30 -37 33 l-38 3 0 -55z m60 19 c0 -8 -9 -15 -20 -15 -11
0 -20 7 -20 15 0 8 9 15 20 15 11 0 20 -7 20 -15z"/>
<path d="M2080 3590 c0 -5 5 -10 10 -10 6 0 10 5 10 10 0 6 -4 10 -10 10 -5 0
-10 -4 -10 -10z"/>
<path d="M2118 3583 c-6 -27 6 -86 18 -90 6 -2 9 12 8 39 -2 24 -3 49 -3 56
-1 18 -18 15 -23 -5z"/>
<path d="M3530 3545 c0 -30 5 -55 10 -55 6 0 10 11 10 25 0 20 5 25 25 25 14
0 25 5 25 10 0 6 -11 10 -25 10 -14 0 -25 5 -25 10 0 6 14 10 30 10 17 0 30 5
30 10 0 6 -18 10 -40 10 l-40 0 0 -55z"/>
<path d="M3888 3583 c-6 -27 6 -86 18 -90 6 -2 9 12 8 39 -2 24 -3 49 -3 56
-1 18 -18 15 -23 -5z"/>
<path d="M3940 3590 c0 -5 5 -10 10 -10 6 0 10 5 10 10 0 6 -4 10 -10 10 -5 0
-10 -4 -10 -10z"/>
<path d="M6640 3545 l0 -55 33 0 c41 0 57 15 57 55 0 40 -16 55 -57 55 l-33 0
0 -55z m65 0 c0 -23 -5 -31 -22 -33 -20 -3 -23 1 -23 33 0 32 3 36 23 33 17
-2 22 -10 22 -33z"/>
<path d="M7060 3590 c0 -5 5 -10 10 -10 6 0 10 5 10 10 0 6 -4 10 -10 10 -5 0
-10 -4 -10 -10z"/>
<path d="M7188 3583 c-6 -27 6 -86 18 -90 6 -2 9 12 8 39 -2 24 -3 49 -3 56
-1 18 -18 15 -23 -5z"/>
<path d="M7240 3590 c0 -5 5 -10 10 -10 6 0 10 5 10 10 0 6 -4 10 -10 10 -5 0
-10 -4 -10 -10z"/>
<path d="M1520 3529 c0 -22 5 -39 10 -39 6 0 10 11 10 25 0 14 7 28 15 31 23
9 18 22 -10 22 -22 0 -25 -5 -25 -39z"/>
<path d="M1580 3551 c-25 -47 36 -83 64 -38 8 12 8 22 0 35 -16 25 -51 27 -64
3z m50 -21 c0 -21 -24 -28 -35 -10 -8 14 3 30 21 30 8 0 14 -9 14 -20z"/>
<path d="M1670 3549 c-15 -27 5 -63 31 -56 13 4 19 1 16 -6 -2 -7 -14 -11 -27
-9 -14 2 -20 0 -16 -7 9 -15 39 -14 54 1 7 7 12 31 12 53 0 40 -2 42 -30 43
-20 0 -33 -6 -40 -19z m45 -19 c0 -7 -6 -15 -12 -17 -8 -3 -13 4 -13 17 0 13
5 20 13 18 6 -3 12 -11 12 -18z"/>
<path d="M1760 3529 c0 -22 5 -39 10 -39 6 0 10 11 10 25 0 14 7 28 15 31 23
9 18 22 -10 22 -22 0 -25 -5 -25 -39z"/>
<path d="M1825 3560 c-4 -6 -4 -14 -1 -17 3 -3 1 -12 -5 -19 -16 -20 -3 -32
34 -32 33 0 33 1 28 37 -5 27 -12 37 -28 39 -11 2 -24 -2 -28 -8z m32 -16 c-3
-3 -12 -4 -19 -1 -8 3 -5 6 6 6 11 1 17 -2 13 -5z m3 -24 c0 -5 -7 -10 -16
-10 -8 0 -12 5 -9 10 3 6 10 10 16 10 5 0 9 -4 9 -10z"/>
<path d="M1900 3528 c0 -43 17 -52 22 -11 4 39 28 42 28 4 0 -17 5 -31 10 -31
6 0 10 14 10 31 0 38 24 35 28 -4 4 -35 22 -35 22 1 0 42 -11 50 -67 49 l-53
0 0 -39z"/>
<path d="M2080 3530 c0 -22 5 -40 10 -40 6 0 10 18 10 40 0 22 -4 40 -10 40
-5 0 -10 -18 -10 -40z"/>
<path d="M2172 3558 c-16 -16 -15 -43 3 -58 16 -14 47 -10 52 6 2 7 -6 10 -23
6 -19 -3 -25 -1 -20 7 4 6 18 11 32 11 22 0 23 3 14 20 -12 22 -40 26 -58 8z
m35 -14 c-3 -3 -12 -4 -19 -1 -8 3 -5 6 6 6 11 1 17 -2 13 -5z"/>
<path d="M2250 3528 c0 -43 17 -52 22 -11 4 39 28 42 28 4 0 -17 5 -31 10 -31
6 0 10 14 10 31 0 38 24 35 28 -4 4 -35 22 -35 22 1 0 42 -11 50 -67 49 l-53
0 0 -39z"/>
<path d="M3622 3533 c3 -35 6 -38 36 -40 31 -1 32 0 32 38 0 21 -4 39 -10 39
-5 0 -10 -13 -10 -30 0 -20 -5 -30 -15 -30 -10 0 -15 10 -15 30 0 17 -5 30
-11 30 -6 0 -9 -16 -7 -37z"/>
<path d="M3710 3529 c0 -44 17 -54 22 -12 4 39 28 42 28 4 0 -17 5 -31 11 -31
6 0 9 16 7 38 -3 34 -6 37 -35 39 -32 1 -33 0 -33 -38z"/>
<path d="M3812 3558 c-7 -7 -12 -22 -12 -34 0 -30 36 -42 59 -19 15 15 14 16
-11 10 -24 -6 -28 -4 -28 15 0 19 4 21 25 16 27 -7 35 8 9 18 -22 8 -28 8 -42
-6z"/>
<path d="M3940 3530 c0 -22 5 -40 10 -40 6 0 10 18 10 40 0 22 -4 40 -10 40
-5 0 -10 -18 -10 -40z"/>
<path d="M3980 3551 c-25 -47 36 -83 64 -38 8 12 8 22 0 35 -16 25 -51 27 -64
3z m50 -21 c0 -11 -6 -20 -14 -20 -18 0 -29 16 -21 30 11 18 35 11 35 -10z"/>
<path d="M4070 3529 c0 -21 5 -39 10 -39 6 0 10 14 10 30 0 20 5 30 15 30 10
0 15 -10 15 -30 0 -16 5 -30 11 -30 6 0 9 16 7 38 -3 34 -6 37 -35 39 -32 1
-33 0 -33 -38z"/>
<path d="M6752 3558 c-16 -16 -15 -43 3 -58 16 -14 47 -10 52 6 2 7 -6 10 -23
6 -19 -3 -25 -1 -20 7 4 6 18 11 32 11 22 0 23 3 14 20 -12 22 -40 26 -58 8z
m35 -14 c-3 -3 -12 -4 -19 -1 -8 3 -5 6 6 6 11 1 17 -2 13 -5z"/>
<path d="M6837 3564 c-13 -14 -7 -31 16 -43 l22 -12 -23 5 c-15 3 -22 0 -19
-7 5 -17 35 -21 52 -7 17 14 11 28 -19 41 -20 9 -20 9 2 5 15 -3 22 0 19 7 -4
14 -39 21 -50 11z"/>
<path d="M6922 3558 c-7 -7 -12 -22 -12 -34 0 -30 36 -42 59 -19 15 15 14 16
-11 10 -24 -6 -28 -4 -28 15 0 19 4 21 25 16 27 -7 35 8 9 18 -22 8 -28 8 -42
-6z"/>
<path d="M7000 3529 c0 -21 5 -39 10 -39 6 0 10 14 10 30 0 17 5 30 10 30 19
0 10 16 -10 17 -17 2 -20 -4 -20 -38z"/>
<path d="M7060 3530 c0 -22 5 -40 10 -40 6 0 10 18 10 40 0 22 -4 40 -10 40
-5 0 -10 -18 -10 -40z"/>
<path d="M7100 3514 c0 -30 5 -54 10 -54 6 0 10 8 10 18 0 13 7 18 23 18 19
-1 22 4 22 34 0 32 -2 35 -32 37 l-33 1 0 -54z m50 16 c0 -11 -7 -20 -15 -20
-8 0 -15 9 -15 20 0 11 7 20 15 20 8 0 15 -9 15 -20z"/>
<path d="M7240 3530 c0 -22 5 -40 10 -40 6 0 10 18 10 40 0 22 -4 40 -10 40
-5 0 -10 -18 -10 -40z"/>
<path d="M7293 3564 c-7 -3 -13 -19 -13 -35 0 -22 5 -30 26 -35 32 -8 46 6 42
42 -3 29 -26 40 -55 28z m37 -34 c0 -11 -7 -20 -15 -20 -8 0 -15 9 -15 20 0
11 7 20 15 20 8 0 15 -9 15 -20z"/>
<path d="M7370 3529 c0 -44 17 -54 22 -12 4 39 28 42 28 4 0 -17 5 -31 11 -31
6 0 9 16 7 38 -3 34 -6 37 -35 39 -32 1 -33 0 -33 -38z"/>
<path d="M1240 3380 c0 -7 1293 -10 3860 -10 2567 0 3860 3 3860 10 0 7 -1293
10 -3860 10 -2567 0 -3860 -3 -3860 -10z"/>
<path d="M1800 3312 c0 -13 -7 -18 -21 -18 -12 1 -26 -7 -33 -16 -15 -25 4
-53 38 -54 25 -1 26 1 26 52 0 30 -2 54 -5 54 -3 0 -5 -8 -5 -18z m-11 -36
c13 -16 4 -46 -14 -46 -16 0 -26 25 -19 45 8 19 18 19 33 1z"/>
<path d="M1830 3275 c0 -30 5 -55 10 -55 6 0 10 25 10 55 0 30 -4 55 -10 55
-5 0 -10 -25 -10 -55z"/>
<path d="M1883 3323 c-27 -10 -13 -41 22 -53 29 -10 34 -14 24 -26 -16 -19
-36 -18 -49 4 -10 15 -10 15 -8 -3 4 -25 49 -32 67 -11 19 23 7 42 -28 49 -17
4 -31 11 -31 17 0 16 30 24 43 11 17 -17 31 -13 17 4 -12 15 -34 18 -57 8z"/>
<path d="M1971 3273 c1 -40 3 -50 8 -33 5 18 16 26 36 30 24 4 30 10 30 30 0
22 -5 25 -37 28 l-38 3 1 -58z m59 27 c0 -15 -7 -20 -25 -20 -24 0 -34 18 -18
33 15 15 43 7 43 -13z"/>
<path d="M2790 3311 c0 -14 -5 -18 -19 -14 -13 3 -23 -2 -30 -16 -16 -30 2
-61 34 -59 23 2 25 6 25 55 0 29 -2 53 -5 53 -3 0 -5 -9 -5 -19z m-5 -51 c0
-13 -6 -25 -12 -27 -16 -6 -27 21 -19 43 9 23 31 11 31 -16z"/>
<path d="M3010 3275 c0 -30 5 -55 10 -55 6 0 10 25 10 55 0 30 -4 55 -10 55
-5 0 -10 -25 -10 -55z"/>
<path d="M3333 3315 c-11 -18 -4 -95 8 -95 5 0 9 15 10 33 0 17 2 42 3 55 3
25 -9 29 -21 7z"/>
<path d="M3830 3311 c0 -14 -5 -18 -19 -14 -13 3 -23 -2 -30 -16 -16 -30 2
-61 34 -59 23 2 25 6 25 55 0 29 -2 53 -5 53 -3 0 -5 -9 -5 -19z m-5 -51 c0
-13 -6 -25 -12 -27 -16 -6 -27 21 -19 43 9 23 31 11 31 -16z"/>
<path d="M6530 3275 c0 -59 17 -76 22 -23 4 46 28 49 28 4 0 -20 5 -36 10 -36
11 0 13 39 4 64 -3 9 -15 16 -25 16 -10 0 -19 7 -19 15 0 8 -4 15 -10 15 -5 0
-10 -25 -10 -55z"/>
<path d="M6901 3279 c-1 -54 0 -56 25 -55 51 2 59 71 8 71 -10 0 -22 9 -26 20
-3 12 -6 -4 -7 -36z m44 -19 c0 -13 -6 -25 -12 -27 -16 -6 -27 21 -19 43 9 23
31 11 31 -16z"/>
<path d="M7412 3305 c-16 -35 -15 -65 4 -95 9 -14 13 -17 10 -7 -15 48 -16 65
-6 91 13 36 7 45 -8 11z"/>
<path d="M7500 3311 c0 -14 -5 -18 -19 -14 -13 3 -23 -2 -30 -16 -16 -30 2
-61 34 -59 23 2 25 6 25 55 0 29 -2 53 -5 53 -3 0 -5 -9 -5 -19z m-5 -51 c0
-27 -22 -39 -31 -16 -8 22 3 49 19 43 6 -2 12 -14 12 -27z"/>
<path d="M3413 3305 c-8 -9 -9 -16 -3 -20 6 -3 10 -19 10 -36 0 -16 3 -29 8
-29 7 0 8 88 0 95 -1 1 -9 -3 -15 -10z"/>
<path d="M3948 3310 c-5 -17 3 -90 11 -90 3 0 5 21 4 46 -1 46 -8 65 -15 44z"/>
<path d="M4158 3310 c-5 -17 3 -90 11 -90 3 0 5 21 4 46 -1 46 -8 65 -15 44z"/>
<path d="M4703 3305 c-8 -9 -9 -16 -3 -20 6 -3 10 -19 10 -36 0 -16 3 -29 8
-29 7 0 8 88 0 95 -1 1 -9 -3 -15 -10z"/>
<path d="M6278 3310 c-5 -17 3 -90 11 -90 3 0 5 21 4 46 -1 46 -8 65 -15 44z"/>
<path d="M6493 3305 c-8 -9 -9 -16 -3 -20 6 -3 10 -19 10 -36 0 -16 3 -29 8
-29 7 0 8 88 0 95 -1 1 -9 -3 -15 -10z"/>
<path d="M7955 3255 c0 -44 3 -59 9 -48 11 21 11 92 0 103 -5 5 -9 -18 -9 -55z"/>
<path d="M2823 3260 c0 -25 2 -35 4 -22 2 12 2 32 0 45 -2 12 -4 2 -4 -23z"/>
<path d="M2857 3293 c-13 -12 -7 -22 19 -36 18 -9 23 -16 15 -21 -7 -4 -19 -2
-28 6 -14 11 -15 11 -11 -2 2 -8 15 -15 29 -15 30 0 38 31 10 40 -12 3 -21 11
-21 16 0 6 9 7 21 4 15 -5 19 -4 15 4 -8 12 -39 15 -49 4z"/>
<path d="M2931 3241 c1 -32 4 -48 7 -36 4 11 16 20 26 20 51 0 43 69 -8 71
-25 1 -26 -1 -25 -55z m44 19 c0 -13 -6 -25 -12 -27 -16 -6 -27 21 -19 43 9
23 31 11 31 -16z"/>
<path d="M3055 3290 c-5 -9 -1 -10 13 -6 11 4 23 2 27 -4 3 -5 0 -10 -7 -10
-10 0 -10 -2 1 -9 16 -11 6 -31 -16 -31 -9 0 -13 6 -9 15 6 15 -9 21 -18 7
-10 -16 10 -31 40 -30 29 1 30 2 25 37 -5 27 -12 37 -28 39 -11 2 -24 -2 -28
-8z"/>
<path d="M3135 3259 c12 -34 13 -45 3 -57 -11 -12 -10 -14 1 -11 14 5 55 98
47 107 -3 2 -11 -8 -17 -24 l-12 -29 -10 28 c-17 44 -28 31 -12 -14z"/>
<path d="M3250 3281 c-15 -29 4 -63 33 -59 18 2 22 10 22 38 0 28 -4 36 -22
38 -14 2 -26 -4 -33 -17z m45 -21 c0 -13 -6 -25 -12 -27 -16 -6 -27 21 -19 43
9 23 31 11 31 -16z"/>
<path d="M3463 3260 c0 -25 2 -35 4 -22 2 12 2 32 0 45 -2 12 -4 2 -4 -23z"/>
<path d="M3491 3256 l2 -41 6 34 c8 48 31 53 31 7 0 -20 5 -36 10 -36 6 0 10
16 10 36 0 46 22 41 32 -7 6 -34 6 -34 5 6 l-2 40 -47 1 -48 1 1 -41z"/>
<path d="M3620 3285 c-26 -32 13 -82 44 -55 9 7 14 15 11 18 -2 3 -11 -1 -19
-7 -8 -7 -20 -10 -26 -6 -20 12 -10 25 20 25 32 0 37 9 18 28 -16 16 -33 15
-48 -3z m40 -5 c0 -5 -9 -10 -21 -10 -11 0 -17 5 -14 10 3 6 13 10 21 10 8 0
14 -4 14 -10z"/>
<path d="M3865 3290 c-5 -9 -1 -10 13 -6 11 4 23 2 27 -3 3 -6 -6 -13 -20 -17
-37 -9 -29 -39 11 -41 30 -1 30 0 25 35 -5 28 -12 38 -28 40 -11 2 -24 -2 -28
-8z m45 -39 c0 -14 -18 -23 -31 -15 -8 4 -7 9 2 15 18 11 29 11 29 0z"/>
<path d="M3990 3281 c-15 -29 4 -63 32 -59 12 2 24 10 26 18 5 13 3 13 -11 2
-9 -8 -21 -11 -27 -7 -19 11 -10 25 16 25 19 0 25 5 22 18 -5 25 -44 27 -58 3z
m45 -1 c3 -5 -3 -10 -15 -10 -12 0 -18 5 -15 10 3 6 10 10 15 10 5 0 12 -4 15
-10z"/>
<path d="M4201 3286 c-16 -19 -11 -46 11 -60 14 -8 21 -7 35 9 17 18 17 18 0
5 -15 -11 -20 -11 -35 3 -15 16 -14 17 17 17 26 0 32 4 29 18 -4 22 -41 27
-57 8z m44 -6 c3 -5 -3 -10 -14 -10 -12 0 -21 5 -21 10 0 6 6 10 14 10 8 0 18
-4 21 -10z"/>
<path d="M4281 3256 l2 -41 6 34 c8 48 31 53 31 7 0 -20 5 -36 10 -36 6 0 10
16 10 36 0 46 22 41 32 -7 6 -34 6 -34 5 6 l-2 40 -47 1 -48 1 1 -41z"/>
<path d="M4401 3241 c1 -32 4 -48 7 -36 4 11 16 20 26 20 51 0 43 69 -8 71
-25 1 -26 -1 -25 -55z m53 34 c7 -20 -3 -45 -19 -45 -18 0 -27 30 -14 46 15
18 25 18 33 -1z"/>
<path d="M4490 3281 c-15 -29 4 -63 32 -59 12 2 24 10 26 18 5 13 3 13 -11 2
-9 -8 -21 -11 -27 -7 -19 11 -10 25 16 25 19 0 25 5 22 18 -5 25 -44 27 -58 3z
m45 -1 c3 -5 -3 -10 -15 -10 -12 0 -18 5 -15 10 3 6 10 10 15 10 5 0 12 -4 15
-10z"/>
<path d="M4571 3255 l1 -40 8 34 c4 18 14 37 21 42 10 6 7 8 -9 6 -19 -1 -22
-7 -21 -42z"/>
<path d="M4625 3290 c-5 -9 -1 -10 13 -6 11 4 23 2 27 -3 3 -6 -6 -13 -20 -17
-37 -9 -29 -39 11 -41 30 -1 30 0 25 35 -5 28 -12 38 -28 40 -11 2 -24 -2 -28
-8z m45 -40 c0 -13 -28 -25 -38 -16 -3 4 0 11 8 16 20 13 30 12 30 0z"/>
<path d="M4740 3276 c0 -42 11 -56 41 -56 27 0 29 3 29 40 0 22 -4 40 -10 40
-5 0 -10 -16 -10 -35 0 -24 -5 -35 -15 -35 -10 0 -15 11 -15 35 0 19 -4 35
-10 35 -5 0 -10 -11 -10 -24z"/>
<path d="M4831 3255 c2 -33 3 -35 6 -10 2 17 11 35 20 42 13 10 13 12 -6 10
-18 -1 -21 -7 -20 -42z"/>
<path d="M4880 3281 c-15 -29 4 -63 32 -59 12 2 24 10 26 18 5 13 3 13 -11 2
-9 -8 -21 -11 -27 -7 -19 11 -10 25 16 25 19 0 25 5 22 18 -5 25 -44 27 -58 3z
m45 -1 c3 -5 -3 -10 -15 -10 -12 0 -18 5 -15 10 3 6 10 10 15 10 5 0 12 -4 15
-10z"/>
<path d="M6114 3286 c-12 -31 0 -61 25 -61 13 0 27 7 29 15 4 13 3 13 -11 2
-9 -8 -21 -11 -27 -7 -20 12 -10 25 20 25 28 0 30 2 20 20 -12 23 -48 27 -56
6z m41 -6 c3 -5 -3 -10 -15 -10 -12 0 -18 5 -15 10 3 6 10 10 15 10 5 0 12 -4
15 -10z"/>
<path d="M6190 3258 c0 -46 17 -51 22 -6 4 46 28 49 28 4 0 -20 5 -36 10 -36
12 0 13 50 2 68 -5 6 -20 11 -35 10 -24 -2 -27 -6 -27 -40z"/>
<path d="M6320 3281 c-15 -29 4 -63 32 -59 12 2 24 10 26 18 5 13 3 13 -11 2
-9 -8 -21 -11 -27 -7 -19 11 -10 25 16 25 19 0 25 5 22 18 -5 25 -44 27 -58 3z
m45 -1 c3 -5 -3 -10 -15 -10 -12 0 -18 5 -15 10 3 6 10 10 15 10 5 0 12 -4 15
-10z"/>
<path d="M6401 3255 l1 -40 8 34 c4 18 14 37 21 42 10 6 7 8 -9 6 -19 -1 -22
-7 -21 -42z"/>
<path d="M6620 3281 c-15 -29 4 -63 32 -59 12 2 24 10 26 18 5 13 3 13 -11 2
-9 -8 -21 -11 -27 -7 -19 11 -10 25 16 25 19 0 25 5 22 18 -5 25 -44 27 -58 3z
m45 -1 c3 -5 -3 -10 -15 -10 -12 0 -18 5 -15 10 3 6 10 10 15 10 5 0 12 -4 15
-10z"/>
<path d="M6747 3293 c-15 -14 -6 -31 19 -37 20 -5 24 -10 16 -18 -8 -8 -16 -7
-28 3 -15 12 -17 12 -12 -1 7 -21 52 -19 56 2 2 12 -5 19 -22 24 -14 3 -23 10
-20 15 3 6 15 7 26 3 14 -4 18 -2 14 5 -8 12 -39 15 -49 4z"/>
<path d="M6823 3265 c2 -36 5 -40 30 -41 25 -1 27 1 26 40 l-2 41 -6 -35 c-4
-22 -12 -35 -21 -35 -9 0 -18 13 -22 35 l-6 35 1 -40z"/>
<path d="M6980 3260 c0 -22 5 -40 10 -40 6 0 10 16 10 36 0 46 23 41 31 -7 l6
-34 4 34 c6 48 29 53 29 7 0 -20 5 -36 11 -36 6 0 9 16 7 37 l-3 38 -52 2 -53
3 0 -40z"/>
<path d="M7110 3281 c-15 -29 4 -63 32 -59 12 2 24 10 26 18 5 13 3 13 -11 2
-9 -8 -21 -11 -27 -7 -19 11 -10 25 16 25 19 0 25 5 22 18 -5 25 -44 27 -58 3z
m45 -1 c3 -5 -3 -10 -15 -10 -12 0 -18 5 -15 10 3 6 10 10 15 10 5 0 12 -4 15
-10z"/>
<path d="M7191 3256 c1 -42 3 -41 13 7 9 37 29 30 38 -14 6 -34 6 -34 5 6 -2
36 -5 40 -29 41 -26 1 -28 -1 -27 -40z"/>
<path d="M7270 3276 c0 -42 11 -56 41 -56 27 0 29 3 29 40 0 22 -4 40 -10 40
-5 0 -10 -16 -10 -35 0 -24 -5 -35 -15 -35 -10 0 -15 11 -15 35 0 19 -4 35
-10 35 -5 0 -10 -11 -10 -24z"/>
<path d="M7581 3258 c2 -41 2 -42 8 -10 3 18 11 33 16 33 6 0 13 -15 16 -33
l6 -33 4 35 c2 23 9 35 19 35 9 0 18 -13 22 -35 l6 -35 -1 40 -2 40 -47 3 -48
2 1 -42z"/>
<path d="M7700 3281 c-15 -29 4 -63 32 -59 12 2 24 10 26 18 5 13 3 13 -11 2
-9 -8 -21 -11 -27 -7 -19 11 -10 25 16 25 19 0 25 5 22 18 -5 25 -44 27 -58 3z
m45 -1 c3 -5 -3 -10 -15 -10 -12 0 -18 5 -15 10 3 6 10 10 15 10 5 0 12 -4 15
-10z"/>
<path d="M7780 3258 c0 -46 17 -51 22 -6 4 46 28 49 28 4 0 -20 5 -36 10 -36
12 0 13 50 2 68 -5 6 -20 11 -35 10 -24 -2 -27 -6 -27 -40z"/>
<path d="M7860 3276 c0 -42 11 -56 41 -56 27 0 29 3 29 40 0 22 -4 40 -10 40
-5 0 -10 -16 -10 -35 0 -24 -5 -35 -15 -35 -10 0 -15 11 -15 35 0 19 -4 35
-10 35 -5 0 -10 -11 -10 -24z"/>
<path d="M4075 3220 c3 -5 8 -10 11 -10 2 0 4 5 4 10 0 6 -5 10 -11 10 -5 0
-7 -4 -4 -10z"/>
<path d="M3168 3113 c1062 -2 2802 -2 3865 0 1062 1 193 2 -1933 2 -2126 0
-2995 -1 -1932 -2z"/>
<path d="M1707 3064 c-17 -17 -5 -43 23 -53 17 -5 30 -15 30 -21 0 -20 -31
-23 -50 -5 -21 19 -28 7 -8 -13 29 -29 94 1 69 32 -7 8 -23 17 -36 20 -14 4
-25 11 -25 17 0 17 29 22 47 8 14 -12 16 -12 11 1 -5 16 -49 26 -61 14z"/>
<path d="M1809 3036 c12 -18 22 -44 22 -57 l1 -24 7 25 c3 14 14 40 24 58 10
17 14 32 9 32 -5 0 -14 -12 -21 -27 l-13 -27 -16 27 c-9 15 -20 27 -25 27 -5
0 1 -15 12 -34z"/>
<path d="M1902 3013 c1 -57 1 -57 7 -15 l6 43 25 -41 c14 -22 28 -40 32 -40 5
0 7 26 6 58 l-1 57 -6 -44 -6 -45 -28 42 c-15 23 -29 42 -32 42 -3 0 -4 -26
-3 -57z"/>
<path d="M2016 3054 c-9 -8 -16 -26 -16 -39 0 -44 50 -71 78 -43 20 20 14 33
-7 14 -31 -28 -69 2 -56 44 7 23 35 34 49 20 16 -16 30 -12 16 5 -16 19 -44
19 -64 -1z"/>
<path d="M3630 3015 c0 -59 17 -76 22 -23 4 46 28 49 28 4 0 -20 5 -36 10 -36
11 0 13 39 4 64 -3 9 -15 16 -25 16 -10 0 -19 7 -19 15 0 8 -4 15 -10 15 -5 0
-10 -25 -10 -55z"/>
<path d="M6530 3015 c0 -59 17 -76 22 -23 4 46 28 49 28 4 0 -20 5 -36 10 -36
11 0 13 39 4 64 -3 9 -15 16 -25 16 -10 0 -19 7 -19 15 0 8 -4 15 -10 15 -5 0
-10 -25 -10 -55z"/>
<path d="M6901 3019 c-1 -54 0 -56 25 -55 51 2 59 71 8 71 -10 0 -22 9 -26 20
-3 12 -6 -4 -7 -36z m44 -19 c0 -13 -6 -25 -12 -27 -16 -6 -27 21 -19 43 9 23
31 11 31 -16z"/>
<path d="M7412 3045 c-16 -35 -15 -65 4 -95 9 -14 13 -17 10 -7 -15 48 -16 65
-6 91 13 36 7 45 -8 11z"/>
<path d="M4123 3045 c-8 -9 -9 -16 -3 -20 6 -3 10 -19 10 -36 0 -16 3 -29 8
-29 7 0 8 88 0 95 -1 1 -9 -3 -15 -10z"/>
<path d="M6278 3050 c-5 -17 3 -90 11 -90 3 0 5 21 4 46 -1 46 -8 65 -15 44z"/>
<path d="M6493 3045 c-8 -9 -9 -16 -3 -20 6 -3 10 -19 10 -36 0 -16 3 -29 8
-29 7 0 8 88 0 95 -1 1 -9 -3 -15 -10z"/>
<path d="M7955 2995 c0 -44 3 -59 9 -48 11 21 11 92 0 103 -5 5 -9 -18 -9 -55z"/>
<path d="M3327 3033 c-13 -12 -7 -22 19 -36 18 -9 23 -16 15 -21 -7 -4 -19 -2
-28 6 -14 11 -15 11 -11 -2 2 -8 15 -15 29 -15 30 0 38 31 10 40 -12 3 -21 11
-21 16 0 6 9 7 21 4 15 -5 19 -4 15 4 -8 12 -39 15 -49 4z"/>
<path d="M3405 2999 c12 -34 13 -45 3 -57 -11 -12 -10 -14 1 -11 14 5 55 98
47 107 -3 2 -11 -8 -17 -24 l-12 -29 -10 28 c-17 44 -28 31 -12 -14z"/>
<path d="M3481 2996 l2 -41 6 34 c8 43 28 51 37 14 10 -47 13 -50 11 -8 -2 36
-5 40 -29 41 -26 1 -28 -1 -27 -40z"/>
<path d="M3560 3025 c-28 -34 16 -84 47 -52 9 9 12 17 6 17 -6 0 -13 -5 -15
-12 -6 -17 -28 0 -28 22 0 26 17 34 38 18 15 -12 16 -11 3 5 -16 21 -35 22
-51 2z"/>
<path d="M3721 2996 c2 -34 3 -36 6 -11 3 17 9 35 14 41 5 7 3 11 -6 11 -11 0
-15 -11 -14 -41z"/>
<path d="M3770 3025 c-26 -31 13 -82 44 -56 19 16 21 42 4 59 -16 16 -33 15
-48 -3z m45 -26 c0 -28 -29 -38 -39 -13 -7 19 11 47 28 41 6 -2 11 -14 11 -28z"/>
<path d="M3851 2996 l2 -41 6 35 c4 22 12 35 21 35 9 0 18 -13 22 -35 l6 -35
-1 40 c-2 36 -5 40 -29 41 -26 1 -28 -1 -27 -40z"/>
<path d="M3933 3000 c0 -25 2 -35 4 -22 2 12 2 32 0 45 -2 12 -4 2 -4 -23z"/>
<path d="M3978 3033 c27 -5 28 -15 2 -38 -28 -26 -25 -35 13 -34 28 1 29 2 9
8 l-24 6 21 27 c28 35 27 38 -11 37 -24 -1 -27 -3 -10 -6z"/>
<path d="M4045 3030 c-5 -9 -1 -10 13 -6 11 4 23 2 27 -3 3 -6 -6 -13 -20 -17
-37 -9 -29 -39 11 -41 30 -1 30 0 25 35 -5 28 -12 38 -28 40 -11 2 -24 -2 -28
-8z m45 -40 c0 -13 -28 -25 -38 -16 -3 4 0 11 8 16 20 13 30 12 30 0z"/>
<path d="M4173 3000 c0 -25 2 -35 4 -22 2 12 2 32 0 45 -2 12 -4 2 -4 -23z"/>
<path d="M4200 3021 c-15 -29 4 -63 33 -59 18 2 22 10 22 38 0 28 -4 36 -22
38 -14 2 -26 -4 -33 -17z m45 -21 c0 -13 -6 -25 -12 -27 -16 -6 -27 21 -19 43
9 23 31 11 31 -16z"/>
<path d="M4280 2998 c0 -46 17 -51 22 -6 4 46 28 49 28 4 0 -20 5 -36 10 -36
12 0 13 50 2 68 -5 6 -20 11 -35 10 -24 -2 -27 -6 -27 -40z"/>
<path d="M6114 3026 c-12 -31 0 -61 25 -61 13 0 27 7 29 15 4 13 3 13 -11 2
-9 -8 -21 -11 -27 -7 -20 12 -10 25 20 25 28 0 30 2 20 20 -12 23 -48 27 -56
6z m41 -6 c3 -5 -3 -10 -15 -10 -12 0 -18 5 -15 10 3 6 10 10 15 10 5 0 12 -4
15 -10z"/>
<path d="M6190 2998 c0 -46 17 -51 22 -6 4 46 28 49 28 4 0 -20 5 -36 10 -36
12 0 13 50 2 68 -5 6 -20 11 -35 10 -24 -2 -27 -6 -27 -40z"/>
<path d="M6320 3021 c-15 -29 4 -63 32 -59 12 2 24 10 26 18 5 13 3 13 -11 2
-9 -8 -21 -11 -27 -7 -19 11 -10 25 16 25 19 0 25 5 22 18 -5 25 -44 27 -58 3z
m45 -1 c3 -5 -3 -10 -15 -10 -12 0 -18 5 -15 10 3 6 10 10 15 10 5 0 12 -4 15
-10z"/>
<path d="M6401 2995 l1 -40 8 34 c4 18 14 37 21 42 10 6 7 8 -9 6 -19 -1 -22
-7 -21 -42z"/>
<path d="M6620 3021 c-15 -29 4 -63 32 -59 12 2 24 10 26 18 5 13 3 13 -11 2
-9 -8 -21 -11 -27 -7 -19 11 -10 25 16 25 19 0 25 5 22 18 -5 25 -44 27 -58 3z
m45 -1 c3 -5 -3 -10 -15 -10 -12 0 -18 5 -15 10 3 6 10 10 15 10 5 0 12 -4 15
-10z"/>
<path d="M6747 3033 c-15 -14 -6 -31 19 -37 20 -5 24 -10 16 -18 -8 -8 -16 -7
-28 3 -15 12 -17 12 -12 -1 7 -21 52 -19 56 2 2 12 -5 19 -22 24 -14 3 -23 10
-20 15 3 6 15 7 26 3 14 -4 18 -2 14 5 -8 12 -39 15 -49 4z"/>
<path d="M6823 3005 c2 -36 5 -40 30 -41 25 -1 27 1 26 40 l-2 41 -6 -35 c-4
-22 -12 -35 -21 -35 -9 0 -18 13 -22 35 l-6 35 1 -40z"/>
<path d="M6980 3000 c0 -22 5 -40 10 -40 6 0 10 16 10 36 0 46 23 41 31 -7 l6
-34 4 34 c6 48 29 53 29 7 0 -20 5 -36 11 -36 6 0 9 16 7 37 l-3 38 -52 2 -53
3 0 -40z"/>
<path d="M7110 3021 c-15 -29 4 -63 32 -59 12 2 24 10 26 18 5 13 3 13 -11 2
-9 -8 -21 -11 -27 -7 -19 11 -10 25 16 25 19 0 25 5 22 18 -5 25 -44 27 -58 3z
m45 -1 c3 -5 -3 -10 -15 -10 -12 0 -18 5 -15 10 3 6 10 10 15 10 5 0 12 -4 15
-10z"/>
<path d="M7191 2996 c1 -42 3 -41 13 7 9 37 29 30 38 -14 6 -34 6 -34 5 6 -2
36 -5 40 -29 41 -26 1 -28 -1 -27 -40z"/>
<path d="M7270 3016 c0 -42 11 -56 41 -56 27 0 29 3 29 40 0 22 -4 40 -10 40
-5 0 -10 -16 -10 -35 0 -24 -5 -35 -15 -35 -10 0 -15 11 -15 35 0 19 -4 35
-10 35 -5 0 -10 -11 -10 -24z"/>
<path d="M7454 3026 c-11 -29 1 -61 23 -64 29 -4 48 30 33 58 -12 23 -48 27
-56 6z m41 -26 c0 -27 -22 -39 -31 -16 -8 22 3 49 19 43 6 -2 12 -14 12 -27z"/>
<path d="M7581 2998 c2 -41 2 -42 8 -10 3 18 11 33 16 33 6 0 13 -15 16 -33
l6 -33 4 35 c2 23 9 35 19 35 9 0 18 -13 22 -35 l6 -35 -1 40 -2 40 -47 3 -48
2 1 -42z"/>
<path d="M7700 3021 c-15 -29 4 -63 32 -59 12 2 24 10 26 18 5 13 3 13 -11 2
-9 -8 -21 -11 -27 -7 -19 11 -10 25 16 25 19 0 25 5 22 18 -5 25 -44 27 -58 3z
m45 -1 c3 -5 -3 -10 -15 -10 -12 0 -18 5 -15 10 3 6 10 10 15 10 5 0 12 -4 15
-10z"/>
<path d="M7780 2998 c0 -46 17 -51 22 -6 4 46 28 49 28 4 0 -20 5 -36 10 -36
12 0 13 50 2 68 -5 6 -20 11 -35 10 -24 -2 -27 -6 -27 -40z"/>
<path d="M7860 3016 c0 -42 11 -56 41 -56 27 0 29 3 29 40 0 22 -4 40 -10 40
-5 0 -10 -16 -10 -35 0 -24 -5 -35 -15 -35 -10 0 -15 11 -15 35 0 19 -4 35
-10 35 -5 0 -10 -11 -10 -24z"/>
<path d="M3168 2853 c1062 -2 2802 -2 3865 0 1062 1 193 2 -1933 2 -2126 0
-2995 -1 -1932 -2z"/>
<path d="M1792 2753 l1 -58 6 45 6 45 19 -28 c10 -15 21 -26 23 -24 6 7 -38
77 -48 77 -5 0 -8 -26 -7 -57z"/>
<path d="M1859 2770 c-1 -22 -2 -45 -3 -52 -1 -6 5 -13 12 -15 9 -4 12 11 12
51 0 63 -19 78 -21 16z"/>
<path d="M3632 2755 c-1 -49 1 -56 9 -35 l10 25 19 -25 c21 -27 26 -21 9 11
-7 15 -7 24 2 35 6 8 7 14 1 14 -5 0 -16 -7 -23 -17 -13 -15 -15 -13 -20 18
-5 26 -7 21 -7 -26z"/>
<path d="M6530 2755 c0 -59 17 -76 22 -23 4 46 28 49 28 4 0 -20 5 -36 10 -36
11 0 13 39 4 64 -3 9 -15 16 -25 16 -10 0 -19 7 -19 15 0 8 -4 15 -10 15 -5 0
-10 -25 -10 -55z"/>
<path d="M6901 2759 c-1 -54 0 -56 25 -55 51 2 59 71 8 71 -10 0 -22 9 -26 20
-3 12 -6 -4 -7 -36z m44 -19 c0 -27 -22 -39 -31 -16 -8 22 3 49 19 43 6 -2 12
-14 12 -27z"/>
<path d="M7412 2785 c-16 -35 -15 -65 4 -95 9 -14 13 -17 10 -7 -15 48 -16 65
-6 91 13 36 7 45 -8 11z"/>
<path d="M1978 2788 c-6 -20 6 -81 17 -85 8 -2 11 35 6 90 -1 12 -19 8 -23 -5z"/>
<path d="M3348 2788 c-6 -21 6 -81 18 -85 6 -2 8 10 6 32 -5 46 15 46 24 0 8
-42 19 -45 31 -8 l10 28 6 -28 c10 -38 23 -34 35 13 5 23 6 40 1 40 -5 0 -9
-9 -9 -19 0 -27 -18 -36 -22 -11 -4 28 -22 27 -29 -2 -6 -23 -6 -22 -14 5 -4
15 -13 27 -21 27 -8 0 -14 5 -14 10 0 14 -17 12 -22 -2z"/>
<path d="M4258 2789 c-2 -6 -2 -28 0 -50 3 -28 9 -39 21 -38 10 0 11 2 4 6
-15 5 -18 60 -4 65 5 2 3 8 -4 15 -9 8 -15 9 -17 2z"/>
<path d="M6278 2790 c-5 -17 3 -90 11 -90 3 0 5 21 4 46 -1 46 -8 65 -15 44z"/>
<path d="M6493 2785 c-8 -9 -9 -16 -3 -20 6 -3 10 -19 10 -36 0 -16 3 -29 8
-29 7 0 8 88 0 95 -1 1 -9 -3 -15 -10z"/>
<path d="M7955 2735 c0 -44 3 -59 9 -48 11 21 11 92 0 103 -5 5 -9 -18 -9 -55z"/>
<path d="M1900 2761 c-15 -29 4 -63 32 -59 12 2 24 10 26 18 5 13 3 13 -11 2
-9 -8 -21 -11 -27 -7 -19 11 -10 25 16 25 19 0 25 5 22 18 -5 25 -44 27 -58 3z
m45 -1 c3 -5 -3 -10 -15 -10 -12 0 -18 5 -15 10 3 6 10 10 15 10 5 0 12 -4 15
-10z"/>
<path d="M3191 2736 l2 -41 6 34 c8 43 28 51 37 14 10 -47 13 -50 11 -8 -2 36
-5 40 -29 41 -26 1 -28 -1 -27 -40z"/>
<path d="M3270 2761 c-15 -29 4 -63 32 -59 12 2 24 10 26 18 5 13 3 13 -11 2
-9 -8 -21 -11 -27 -7 -19 11 -10 25 16 25 19 0 25 5 22 18 -5 25 -44 27 -58 3z
m45 -1 c3 -5 -3 -10 -15 -10 -12 0 -18 5 -15 10 3 6 10 10 15 10 5 0 12 -4 15
-10z"/>
<path d="M3504 2766 c-11 -29 1 -61 23 -64 29 -4 48 30 33 58 -12 23 -48 27
-56 6z m41 -26 c0 -13 -6 -25 -12 -27 -16 -6 -27 21 -19 43 9 23 31 11 31 -16z"/>
<path d="M3580 2738 c0 -21 5 -38 10 -38 6 0 10 13 10 28 0 15 5 33 11 39 9 9
7 12 -10 10 -17 -1 -21 -8 -21 -39z"/>
<path d="M3751 2721 c1 -32 4 -48 7 -36 4 11 16 20 26 20 51 0 43 69 -8 71
-25 1 -26 -1 -25 -55z m44 19 c0 -13 -6 -25 -12 -27 -16 -6 -27 21 -19 43 9
23 31 11 31 -16z"/>
<path d="M3835 2770 c-5 -9 -1 -10 13 -6 11 4 23 2 27 -3 3 -6 -6 -13 -20 -17
-37 -9 -29 -39 11 -41 30 -1 30 0 25 35 -5 28 -12 38 -28 40 -11 2 -24 -2 -28
-8z m45 -39 c0 -14 -18 -23 -31 -15 -8 4 -7 9 2 15 18 11 29 11 29 0z"/>
<path d="M3921 2735 c2 -33 3 -35 6 -10 2 17 11 35 20 42 13 10 13 12 -6 10
-18 -1 -21 -7 -20 -42z"/>
<path d="M3975 2770 c-5 -9 -1 -10 13 -6 11 4 23 2 27 -4 3 -5 0 -10 -7 -10
-10 0 -10 -2 1 -9 16 -11 6 -31 -16 -31 -9 0 -13 6 -9 15 6 15 -9 21 -18 7
-10 -16 10 -31 40 -30 29 1 30 2 25 37 -5 27 -12 37 -28 39 -11 2 -24 -2 -28
-8z"/>
<path d="M4051 2735 l2 -40 6 35 c4 22 12 35 21 35 9 0 17 -13 21 -35 l6 -35
4 34 c6 49 27 51 32 4 l4 -38 1 41 2 42 -50 -1 -50 -1 1 -41z"/>
<path d="M4181 2766 c-16 -19 -11 -46 11 -60 14 -8 21 -7 35 9 17 18 17 18 0
5 -15 -11 -20 -11 -35 3 -15 16 -14 17 17 17 26 0 32 4 29 18 -4 22 -41 27
-57 8z m44 -6 c3 -5 -3 -10 -14 -10 -12 0 -21 5 -21 10 0 6 6 10 14 10 8 0 18
-4 21 -10z"/>
<path d="M4304 2766 c-12 -31 0 -61 25 -61 13 0 27 7 29 15 4 13 3 13 -11 2
-9 -8 -21 -11 -27 -7 -20 12 -10 25 20 25 28 0 30 2 20 20 -12 23 -48 27 -56
6z m41 -6 c3 -5 -3 -10 -15 -10 -12 0 -18 5 -15 10 3 6 10 10 15 10 5 0 12 -4
15 -10z"/>
<path d="M4380 2738 c0 -21 5 -38 10 -38 6 0 10 13 10 28 0 15 5 33 11 39 9 9
7 12 -10 10 -17 -1 -21 -8 -21 -39z"/>
<path d="M4437 2773 c-15 -14 -6 -31 19 -37 20 -5 24 -10 16 -18 -8 -8 -16 -7
-28 3 -15 12 -17 12 -12 -1 7 -21 52 -19 56 2 2 12 -5 19 -22 24 -14 3 -23 10
-20 15 3 6 15 7 26 3 14 -4 18 -2 14 5 -8 12 -39 15 -49 4z"/>
<path d="M6114 2766 c-12 -31 0 -61 25 -61 13 0 27 7 29 15 4 13 3 13 -11 2
-9 -8 -21 -11 -27 -7 -20 12 -10 25 20 25 28 0 30 2 20 20 -12 23 -48 27 -56
6z m41 -6 c3 -5 -3 -10 -15 -10 -12 0 -18 5 -15 10 3 6 10 10 15 10 5 0 12 -4
15 -10z"/>
<path d="M6190 2738 c0 -46 17 -51 22 -6 4 46 28 49 28 4 0 -20 5 -36 10 -36
12 0 13 50 2 68 -5 6 -20 11 -35 10 -24 -2 -27 -6 -27 -40z"/>
<path d="M6320 2761 c-15 -29 4 -63 32 -59 12 2 24 10 26 18 5 13 3 13 -11 2
-9 -8 -21 -11 -27 -7 -19 11 -10 25 16 25 19 0 25 5 22 18 -5 25 -44 27 -58 3z
m45 -1 c3 -5 -3 -10 -15 -10 -12 0 -18 5 -15 10 3 6 10 10 15 10 5 0 12 -4 15
-10z"/>
<path d="M6401 2735 l1 -40 8 34 c4 18 14 37 21 42 10 6 7 8 -9 6 -19 -1 -22
-7 -21 -42z"/>
<path d="M6620 2761 c-15 -29 4 -63 32 -59 12 2 24 10 26 18 5 13 3 13 -11 2
-9 -8 -21 -11 -27 -7 -19 11 -10 25 16 25 19 0 25 5 22 18 -5 25 -44 27 -58 3z
m45 -1 c3 -5 -3 -10 -15 -10 -12 0 -18 5 -15 10 3 6 10 10 15 10 5 0 12 -4 15
-10z"/>
<path d="M6747 2773 c-15 -14 -6 -31 19 -37 20 -5 24 -10 16 -18 -8 -8 -16 -7
-28 3 -15 12 -17 12 -12 -1 7 -21 52 -19 56 2 2 12 -5 19 -22 24 -14 3 -23 10
-20 15 3 6 15 7 26 3 14 -4 18 -2 14 5 -8 12 -39 15 -49 4z"/>
<path d="M6823 2745 c2 -36 5 -40 30 -41 25 -1 27 1 26 40 l-2 41 -6 -35 c-4
-22 -12 -35 -21 -35 -9 0 -18 13 -22 35 l-6 35 1 -40z"/>
<path d="M6980 2740 c0 -22 5 -40 10 -40 6 0 10 16 10 36 0 46 23 41 31 -7 l6
-34 4 34 c6 48 29 53 29 7 0 -20 5 -36 11 -36 6 0 9 16 7 37 l-3 38 -52 2 -53
3 0 -40z"/>
<path d="M7110 2761 c-15 -29 4 -63 32 -59 12 2 24 10 26 18 5 13 3 13 -11 2
-9 -8 -21 -11 -27 -7 -19 11 -10 25 16 25 19 0 25 5 22 18 -5 25 -44 27 -58 3z
m45 -1 c3 -5 -3 -10 -15 -10 -12 0 -18 5 -15 10 3 6 10 10 15 10 5 0 12 -4 15
-10z"/>
<path d="M7191 2736 c1 -42 3 -41 13 7 9 37 29 30 38 -14 6 -34 6 -34 5 6 -2
36 -5 40 -29 41 -26 1 -28 -1 -27 -40z"/>
<path d="M7270 2756 c0 -42 11 -56 41 -56 27 0 29 3 29 40 0 22 -4 40 -10 40
-5 0 -10 -16 -10 -35 0 -24 -5 -35 -15 -35 -10 0 -15 11 -15 35 0 19 -4 35
-10 35 -5 0 -10 -11 -10 -24z"/>
<path d="M7451 2736 c1 -42 3 -41 13 7 9 37 29 30 38 -14 6 -34 6 -34 5 6 -2
36 -5 40 -29 41 -26 1 -28 -1 -27 -40z"/>
<path d="M7581 2738 c2 -41 2 -42 8 -10 3 18 11 33 16 33 6 0 13 -15 16 -33
l6 -33 4 35 c2 23 9 35 19 35 9 0 18 -13 22 -35 l6 -35 -1 40 -2 40 -47 3 -48
2 1 -42z"/>
<path d="M7700 2761 c-15 -29 4 -63 32 -59 12 2 24 10 26 18 5 13 3 13 -11 2
-9 -8 -21 -11 -27 -7 -19 11 -10 25 16 25 19 0 25 5 22 18 -5 25 -44 27 -58 3z
m45 -1 c3 -5 -3 -10 -15 -10 -12 0 -18 5 -15 10 3 6 10 10 15 10 5 0 12 -4 15
-10z"/>
<path d="M7780 2738 c0 -46 17 -51 22 -6 4 46 28 49 28 4 0 -20 5 -36 10 -36
12 0 13 50 2 68 -5 6 -20 11 -35 10 -24 -2 -27 -6 -27 -40z"/>
<path d="M7860 2756 c0 -42 11 -56 41 -56 27 0 29 3 29 40 0 22 -4 40 -10 40
-5 0 -10 -16 -10 -35 0 -24 -5 -35 -15 -35 -10 0 -15 11 -15 35 0 19 -4 35
-10 35 -5 0 -10 -11 -10 -24z"/>
<path d="M3168 2593 c1062 -2 2802 -2 3865 0 1062 1 193 2 -1933 2 -2126 0
-2995 -1 -1932 -2z"/>
<path d="M1657 2494 c-17 -17 -5 -43 23 -53 17 -5 30 -15 30 -21 0 -20 -31
-23 -50 -5 -21 19 -28 7 -8 -13 29 -29 94 1 69 32 -7 8 -23 17 -36 20 -14 4
-25 11 -25 17 0 17 29 22 47 8 14 -12 16 -12 11 1 -5 16 -49 26 -61 14z"/>
<path d="M1750 2445 l0 -55 43 2 42 1 -37 4 c-29 3 -38 9 -38 23 0 14 9 20 33
23 l32 4 -32 1 c-25 2 -33 7 -33 21 0 15 8 21 33 24 31 4 31 4 -5 5 l-38 2 0
-55z"/>
<path d="M1852 2443 c1 -57 1 -57 7 -15 l6 43 25 -41 c14 -22 28 -40 32 -40 5
0 7 26 6 58 l-1 57 -6 -44 -6 -45 -28 42 c-15 23 -29 42 -32 42 -3 0 -4 -26
-3 -57z"/>
<path d="M2103 2465 c-28 -42 -28 -45 -3 -45 11 0 20 -7 20 -15 0 -21 18 -19
22 2 5 25 -3 93 -11 93 -3 0 -16 -16 -28 -35z m17 -15 c0 -11 -7 -20 -15 -20
-13 0 -13 3 -3 20 7 11 14 20 15 20 2 0 3 -9 3 -20z"/>
<path d="M3787 2465 l-27 -40 24 -3 c14 -2 27 -11 29 -20 4 -15 5 -15 6 1 0 9
7 17 14 17 9 0 9 2 0 8 -6 4 -13 23 -15 42 l-3 35 -28 -40z m23 -15 c0 -11 -7
-20 -15 -20 -13 0 -14 4 -5 20 6 11 13 20 15 20 3 0 5 -9 5 -20z"/>
<path d="M3902 2445 c1 -46 2 -52 7 -26 8 43 28 51 37 14 10 -47 13 -50 11 -8
-2 33 -6 40 -22 40 -11 0 -23 9 -27 20 -3 11 -6 -7 -6 -40z"/>
<path d="M1970 2480 c-9 -6 -10 -10 -3 -10 7 0 14 -19 16 -42 3 -41 4 -41 5
10 1 28 1 52 0 52 -2 0 -10 -5 -18 -10z"/>
<path d="M3540 2480 c-9 -6 -10 -10 -3 -10 7 0 14 -19 16 -42 3 -41 4 -41 5
10 1 28 1 52 0 52 -2 0 -10 -5 -18 -10z"/>
<path d="M3678 2478 c-6 -20 6 -81 17 -85 8 -2 11 35 6 90 -1 12 -19 8 -23 -5z"/>
<path d="M3858 2480 c-5 -17 3 -90 11 -90 3 0 5 21 4 46 -1 46 -8 65 -15 44z"/>
<path d="M4018 2478 c-6 -20 6 -81 17 -85 8 -2 11 35 6 90 -1 12 -19 8 -23 -5z"/>
<path d="M4568 2478 c-6 -20 6 -81 17 -85 8 -2 11 35 6 90 -1 12 -19 8 -23 -5z"/>
<path d="M2867 2463 c-13 -12 -7 -22 19 -36 18 -9 23 -16 15 -21 -7 -4 -19 -2
-28 6 -14 11 -15 11 -11 -2 2 -8 15 -15 29 -15 30 0 38 31 10 40 -12 3 -21 11
-21 16 0 6 9 7 21 4 15 -5 19 -4 15 4 -8 12 -39 15 -49 4z"/>
<path d="M2944 2456 c-12 -31 0 -61 25 -61 13 0 27 7 29 15 4 13 3 13 -11 2
-9 -8 -21 -11 -27 -7 -20 12 -10 25 20 25 28 0 30 2 20 20 -12 23 -48 27 -56
6z m41 -6 c3 -5 -3 -10 -15 -10 -12 0 -18 5 -15 10 3 6 10 10 15 10 5 0 12 -4
15 -10z"/>
<path d="M3020 2428 c0 -46 17 -51 22 -6 4 46 28 49 28 4 0 -20 5 -36 10 -36
12 0 13 50 2 68 -5 6 -20 11 -35 10 -24 -2 -27 -6 -27 -40z"/>
<path d="M3107 2463 c-13 -12 -7 -22 19 -36 18 -9 23 -16 15 -21 -7 -4 -19 -2
-28 6 -14 11 -15 11 -11 -2 2 -8 15 -15 29 -15 30 0 38 31 10 40 -12 3 -21 11
-21 16 0 6 9 7 21 4 15 -5 19 -4 15 4 -8 12 -39 15 -49 4z"/>
<path d="M3184 2456 c-11 -29 1 -61 23 -64 29 -4 48 30 33 58 -12 23 -48 27
-56 6z m41 -26 c0 -27 -22 -39 -31 -16 -8 22 3 49 19 43 6 -2 12 -14 12 -27z"/>
<path d="M3260 2428 c0 -21 5 -38 10 -38 6 0 10 13 10 28 0 15 5 33 11 39 9 9
7 12 -10 10 -17 -1 -21 -8 -21 -39z"/>
<path d="M3317 2463 c-15 -14 -6 -31 19 -37 20 -5 24 -10 16 -18 -8 -8 -16 -7
-28 3 -15 12 -17 12 -12 -1 7 -21 52 -19 56 2 2 12 -5 19 -22 24 -14 3 -23 10
-20 15 3 6 15 7 26 3 14 -4 18 -2 14 5 -8 12 -39 15 -49 4z"/>
<path d="M3607 2463 c-13 -12 -7 -22 19 -36 18 -9 23 -16 15 -21 -7 -4 -19 -2
-28 6 -14 11 -15 11 -11 -2 2 -8 15 -15 29 -15 30 0 38 31 10 40 -12 3 -21 11
-21 16 0 6 9 7 21 4 15 -5 19 -4 15 4 -8 12 -39 15 -49 4z"/>
<path d="M4070 2455 c-26 -32 13 -82 44 -55 9 7 14 15 11 18 -2 3 -11 -1 -19
-7 -8 -7 -20 -10 -26 -6 -20 12 -10 25 20 25 32 0 37 9 18 28 -16 16 -33 15
-48 -3z m40 -5 c0 -5 -9 -10 -21 -10 -11 0 -17 5 -14 10 3 6 13 10 21 10 8 0
14 -4 14 -10z"/>
<path d="M4151 2428 c2 -41 2 -42 8 -10 3 18 11 33 16 33 6 0 13 -15 16 -33
l6 -33 4 35 c2 23 9 35 19 35 9 0 18 -13 22 -35 l6 -35 -1 40 -2 40 -47 3 -48
2 1 -42z"/>
<path d="M4271 2411 c1 -32 4 -48 7 -36 4 11 16 20 26 20 51 0 43 69 -8 71
-25 1 -26 -1 -25 -55z m44 19 c0 -27 -22 -39 -31 -16 -8 22 3 49 19 43 6 -2
12 -14 12 -27z"/>
<path d="M4361 2456 c-16 -19 -11 -46 11 -60 14 -8 21 -7 35 9 17 18 17 18 0
5 -15 -11 -20 -11 -35 3 -15 16 -14 17 17 17 26 0 32 4 29 18 -4 22 -41 27
-57 8z m44 -6 c3 -5 -3 -10 -14 -10 -12 0 -21 5 -21 10 0 6 6 10 14 10 8 0 18
-4 21 -10z"/>
<path d="M4441 2425 c2 -33 3 -35 6 -10 2 17 11 35 20 42 13 10 13 12 -6 10
-18 -1 -21 -7 -20 -42z"/>
<path d="M4495 2460 c-5 -9 -1 -10 13 -6 11 4 23 2 27 -4 3 -5 0 -10 -7 -10
-10 0 -10 -2 1 -9 16 -11 6 -31 -16 -31 -9 0 -13 6 -9 15 6 15 -9 21 -18 7
-10 -16 10 -31 40 -30 29 1 30 2 25 37 -5 27 -12 37 -28 39 -11 2 -24 -2 -28
-8z"/>
<path d="M4613 2435 c2 -36 5 -40 30 -43 26 -3 27 -2 26 40 -2 42 -2 42 -8 9
-8 -43 -28 -51 -37 -14 -10 47 -13 50 -11 8z"/>
<path d="M4701 2426 c2 -34 3 -36 6 -11 3 17 9 35 14 41 5 7 3 11 -6 11 -11 0
-15 -11 -14 -41z"/>
<path d="M4751 2456 c-16 -19 -11 -46 11 -60 14 -8 21 -7 35 9 17 18 17 18 0
5 -15 -11 -20 -11 -35 3 -15 16 -14 17 17 17 26 0 32 4 29 18 -4 22 -41 27
-57 8z m44 -6 c3 -5 -3 -10 -14 -10 -12 0 -21 5 -21 10 0 6 6 10 14 10 8 0 18
-4 21 -10z"/>
<path d="M2038 2433 c6 -2 18 -2 25 0 6 3 1 5 -13 5 -14 0 -19 -2 -12 -5z"/>
<path d="M3438 2433 c7 -3 16 -2 19 1 4 3 -2 6 -13 5 -11 0 -14 -3 -6 -6z"/>
<path d="M3728 2433 c7 -3 16 -2 19 1 4 3 -2 6 -13 5 -11 0 -14 -3 -6 -6z"/>
<path d="M6550 2355 c0 -59 17 -76 22 -23 4 46 28 49 28 4 0 -20 5 -36 10 -36
11 0 13 39 4 64 -3 9 -15 16 -25 16 -10 0 -19 7 -19 15 0 8 -4 15 -10 15 -5 0
-10 -25 -10 -55z"/>
<path d="M6921 2359 c-1 -54 0 -56 25 -55 51 2 59 71 8 71 -10 0 -22 9 -26 20
-3 12 -6 -4 -7 -36z m44 -19 c0 -13 -6 -25 -12 -27 -16 -6 -27 21 -19 43 9 23
31 11 31 -16z"/>
<path d="M7432 2385 c-16 -35 -15 -65 4 -95 9 -14 13 -17 10 -7 -15 48 -16 65
-6 91 13 36 7 45 -8 11z"/>
<path d="M6298 2390 c-5 -17 3 -90 11 -90 3 0 5 21 4 46 -1 46 -8 65 -15 44z"/>
<path d="M6513 2385 c-8 -9 -9 -16 -3 -20 6 -3 10 -19 10 -36 0 -16 3 -29 8
-29 7 0 8 88 0 95 -1 1 -9 -3 -15 -10z"/>
<path d="M7468 2388 c-6 -20 6 -81 17 -85 8 -2 11 35 6 90 -1 12 -19 8 -23 -5z"/>
<path d="M7935 2335 c0 -44 3 -59 9 -48 11 21 11 92 0 103 -5 5 -9 -18 -9 -55z"/>
<path d="M6134 2366 c-12 -31 0 -61 25 -61 13 0 27 7 29 15 4 13 3 13 -11 2
-9 -8 -21 -11 -27 -7 -20 12 -10 25 20 25 28 0 30 2 20 20 -12 23 -48 27 -56
6z m41 -6 c3 -5 -3 -10 -15 -10 -12 0 -18 5 -15 10 3 6 10 10 15 10 5 0 12 -4
15 -10z"/>
<path d="M6210 2338 c0 -46 17 -51 22 -6 4 46 28 49 28 4 0 -20 5 -36 10 -36
12 0 13 50 2 68 -5 6 -20 11 -35 10 -24 -2 -27 -6 -27 -40z"/>
<path d="M6340 2361 c-15 -29 4 -63 32 -59 12 2 24 10 26 18 5 13 3 13 -11 2
-9 -8 -21 -11 -27 -7 -19 11 -10 25 16 25 19 0 25 5 22 18 -5 25 -44 27 -58 3z
m45 -1 c3 -5 -3 -10 -15 -10 -12 0 -18 5 -15 10 3 6 10 10 15 10 5 0 12 -4 15
-10z"/>
<path d="M6421 2335 l1 -40 8 34 c4 18 14 37 21 42 10 6 7 8 -9 6 -19 -1 -22
-7 -21 -42z"/>
<path d="M6640 2361 c-15 -29 4 -63 32 -59 12 2 24 10 26 18 5 13 3 13 -11 2
-9 -8 -21 -11 -27 -7 -19 11 -10 25 16 25 19 0 25 5 22 18 -5 25 -44 27 -58 3z
m45 -1 c3 -5 -3 -10 -15 -10 -12 0 -18 5 -15 10 3 6 10 10 15 10 5 0 12 -4 15
-10z"/>
<path d="M6767 2373 c-15 -14 -6 -31 19 -37 20 -5 24 -10 16 -18 -8 -8 -16 -7
-28 3 -15 12 -17 12 -12 -1 7 -21 52 -19 56 2 2 12 -5 19 -22 24 -14 3 -23 10
-20 15 3 6 15 7 26 3 14 -4 18 -2 14 5 -8 12 -39 15 -49 4z"/>
<path d="M6843 2345 c2 -36 5 -40 30 -41 25 -1 27 1 26 40 l-2 41 -6 -35 c-4
-22 -12 -35 -21 -35 -9 0 -18 13 -22 35 l-6 35 1 -40z"/>
<path d="M7000 2340 c0 -22 5 -40 10 -40 6 0 10 16 10 36 0 46 23 41 31 -7 l6
-34 4 34 c6 48 29 53 29 7 0 -20 5 -36 11 -36 6 0 9 16 7 37 l-3 38 -52 2 -53
3 0 -40z"/>
<path d="M7130 2361 c-15 -29 4 -63 32 -59 12 2 24 10 26 18 5 13 3 13 -11 2
-9 -8 -21 -11 -27 -7 -19 11 -10 25 16 25 19 0 25 5 22 18 -5 25 -44 27 -58 3z
m45 -1 c3 -5 -3 -10 -15 -10 -12 0 -18 5 -15 10 3 6 10 10 15 10 5 0 12 -4 15
-10z"/>
<path d="M7211 2336 c1 -42 3 -41 13 7 9 37 29 30 38 -14 6 -34 6 -34 5 6 -2
36 -5 40 -29 41 -26 1 -28 -1 -27 -40z"/>
<path d="M7290 2356 c0 -42 11 -56 41 -56 27 0 29 3 29 40 0 22 -4 40 -10 40
-5 0 -10 -16 -10 -35 0 -24 -5 -35 -15 -35 -10 0 -15 11 -15 35 0 19 -4 35
-10 35 -5 0 -10 -11 -10 -24z"/>
<path d="M7550 2340 c0 -22 5 -40 10 -40 6 0 10 16 10 36 0 46 23 41 31 -7 l6
-34 4 34 c6 48 29 53 29 7 0 -20 5 -36 11 -36 6 0 9 16 7 37 l-3 38 -52 2 -53
3 0 -40z"/>
<path d="M7680 2361 c-15 -29 4 -63 32 -59 12 2 24 10 26 18 5 13 3 13 -11 2
-9 -8 -21 -11 -27 -7 -19 11 -10 25 16 25 19 0 25 5 22 18 -5 25 -44 27 -58 3z
m45 -1 c3 -5 -3 -10 -15 -10 -12 0 -18 5 -15 10 3 6 10 10 15 10 5 0 12 -4 15
-10z"/>
<path d="M7761 2336 c1 -42 3 -41 13 7 9 37 29 30 38 -14 6 -34 6 -34 5 6 -2
36 -5 40 -29 41 -26 1 -28 -1 -27 -40z"/>
<path d="M7843 2345 c2 -36 5 -40 30 -43 26 -3 27 -2 26 40 -2 42 -2 42 -8 9
-8 -43 -28 -51 -37 -14 -10 47 -13 50 -11 8z"/>
<path d="M1270 2305 c-16 -19 1 -42 33 -47 26 -4 30 -31 6 -36 -9 -2 -24 4
-33 13 -14 14 -16 14 -16 1 0 -18 33 -30 61 -21 29 9 21 47 -11 55 -27 6 -41
40 -16 40 8 0 18 -4 21 -10 3 -5 11 -10 17 -10 7 0 6 6 -2 15 -7 8 -20 15 -30
15 -10 0 -23 -7 -30 -15z"/>
<path d="M1360 2265 l0 -55 43 2 c36 1 38 2 10 5 -24 3 -33 9 -33 23 0 14 9
20 33 23 l32 4 -32 1 c-25 2 -33 7 -33 21 0 15 8 21 33 24 28 3 26 4 -10 5
l-43 2 0 -55z"/>
<path d="M1462 2263 l1 -58 6 45 6 45 19 -28 c10 -15 21 -26 23 -24 6 7 -38
77 -48 77 -5 0 -8 -26 -7 -57z"/>
<path d="M1529 2280 c-1 -22 -2 -45 -3 -52 -1 -6 5 -13 12 -15 9 -4 12 11 12
51 0 63 -19 78 -21 16z"/>
<path d="M1577 2314 c-14 -14 -7 -26 8 -14 12 10 19 10 27 2 9 -9 7 -16 -8
-27 -17 -13 -17 -14 -1 -15 19 0 23 -25 6 -36 -6 -3 -16 -1 -22 5 -17 17 -31
13 -17 -4 7 -9 23 -15 34 -13 18 3 21 10 21 53 0 43 -3 50 -20 53 -12 2 -24 0
-28 -4z"/>
<path d="M1728 2315 c-4 -4 -4 -20 -1 -36 4 -24 2 -29 -13 -29 -14 0 -15 3 -6
12 7 7 12 17 12 23 -1 11 -30 -25 -30 -37 0 -4 9 -8 20 -8 12 0 20 -7 20 -17
0 -15 2 -14 14 3 8 10 11 21 6 24 -5 3 -10 20 -12 39 -2 18 -6 30 -10 26z"/>
<path d="M1980 2265 c0 -30 5 -55 10 -55 6 0 10 25 10 55 0 30 -4 55 -10 55
-5 0 -10 -25 -10 -55z"/>
<path d="M2138 2303 c-2 -10 -1 -36 3 -58 l6 -40 2 35 c2 19 4 45 5 58 3 26
-10 30 -16 5z"/>
<path d="M2350 2265 l0 -55 35 0 c24 0 37 6 45 19 25 47 0 91 -51 91 -29 0
-29 -1 -29 -55z m69 23 c11 -31 -2 -62 -28 -66 -19 -3 -21 1 -21 42 0 40 3 46
20 46 12 0 24 -9 29 -22z"/>
<path d="M2467 2313 c19 -4 23 -12 26 -56 l3 -52 2 52 c2 45 5 52 25 56 12 2
0 4 -28 4 -27 0 -40 -2 -28 -4z"/>
<path d="M3040 2301 c-15 -29 -12 -84 6 -107 15 -18 15 -18 5 3 -14 28 -14 79
-1 104 6 10 8 19 6 19 -3 0 -10 -9 -16 -19z"/>
<path d="M4251 2268 c-1 -55 0 -58 24 -58 32 0 50 32 34 61 -7 13 -17 19 -29
16 -13 -3 -20 1 -23 17 -2 11 -5 -5 -6 -36z m44 -18 c0 -27 -22 -39 -31 -16
-8 22 3 49 19 43 6 -2 12 -14 12 -27z"/>
<path d="M4580 2301 c0 -14 -5 -18 -19 -14 -13 3 -23 -2 -30 -16 -16 -30 2
-61 34 -59 23 2 25 6 25 55 0 29 -2 53 -5 53 -3 0 -5 -9 -5 -19z m-5 -51 c0
-27 -22 -39 -31 -16 -8 22 3 49 19 43 6 -2 12 -14 12 -27z"/>
<path d="M4615 2305 c15 -40 17 -65 6 -97 -9 -26 -9 -30 1 -20 18 18 17 108
-1 124 -12 11 -13 10 -6 -7z"/>
<path d="M3073 2295 c-8 -9 -9 -16 -3 -20 6 -3 10 -19 10 -36 0 -16 3 -29 8
-29 7 0 8 88 0 95 -1 1 -9 -3 -15 -10z"/>
<path d="M3623 2295 c-8 -9 -9 -16 -3 -20 6 -3 10 -19 10 -36 0 -16 3 -29 8
-29 7 0 8 88 0 95 -1 1 -9 -3 -15 -10z"/>
<path d="M1820 2271 c-15 -29 4 -63 33 -59 18 2 22 10 22 38 0 28 -4 36 -22
38 -14 2 -26 -4 -33 -17z m45 -21 c0 -13 -6 -25 -12 -27 -16 -6 -27 21 -19 43
9 23 31 11 31 -16z"/>
<path d="M1901 2246 c1 -42 3 -41 13 7 9 37 29 30 38 -14 6 -34 6 -34 5 6 -2
36 -5 40 -29 41 -26 1 -28 -1 -27 -40z"/>
<path d="M2025 2249 c11 -31 12 -45 4 -55 -8 -10 -8 -14 0 -14 6 0 11 1 11 3
0 1 9 26 20 55 11 28 16 52 12 52 -5 0 -13 -12 -19 -27 l-10 -28 -8 28 c-4 15
-11 27 -16 27 -4 0 -2 -19 6 -41z"/>
<path d="M2180 2275 c-26 -31 13 -82 44 -56 19 16 21 42 4 59 -16 16 -33 15
-48 -3z m45 -26 c0 -28 -29 -38 -39 -13 -7 19 11 47 28 41 6 -2 11 -14 11 -28z"/>
<path d="M2261 2245 c2 -33 3 -35 6 -10 2 17 11 35 20 42 13 10 13 12 -6 10
-18 -1 -21 -7 -20 -42z"/>
<path d="M3121 2276 c-16 -19 -11 -46 11 -60 14 -8 21 -7 35 9 17 18 17 18 0
5 -15 -11 -20 -11 -35 3 -15 16 -14 17 17 17 26 0 32 4 29 18 -4 22 -41 27
-57 8z m44 -6 c3 -5 -3 -10 -14 -10 -12 0 -21 5 -21 10 0 6 6 10 14 10 8 0 18
-4 21 -10z"/>
<path d="M3201 2246 l2 -41 6 34 c8 48 31 53 31 7 0 -20 5 -36 10 -36 6 0 10
16 10 36 0 46 22 41 32 -7 6 -34 6 -34 5 6 l-2 40 -47 1 -48 1 1 -41z"/>
<path d="M3321 2231 c1 -32 4 -48 7 -36 4 11 16 20 26 20 51 0 43 69 -8 71
-25 1 -26 -1 -25 -55z m53 34 c7 -20 -3 -45 -19 -45 -18 0 -27 30 -14 46 15
18 25 18 33 -1z"/>
<path d="M3410 2271 c-15 -29 4 -63 32 -59 12 2 24 10 26 18 5 13 3 13 -11 2
-9 -8 -21 -11 -27 -7 -19 11 -10 25 16 25 19 0 25 5 22 18 -5 25 -44 27 -58 3z
m45 -1 c3 -5 -3 -10 -15 -10 -12 0 -18 5 -15 10 3 6 10 10 15 10 5 0 12 -4 15
-10z"/>
<path d="M3491 2245 l1 -40 8 34 c4 18 14 37 21 42 10 6 7 8 -9 6 -19 -1 -22
-7 -21 -42z"/>
<path d="M3545 2280 c-5 -9 -1 -10 13 -6 11 4 23 2 27 -3 3 -6 -6 -13 -20 -17
-37 -9 -29 -39 11 -41 30 -1 30 0 25 35 -5 28 -12 38 -28 40 -11 2 -24 -2 -28
-8z m45 -40 c0 -13 -28 -25 -38 -16 -3 4 0 11 8 16 20 13 30 12 30 0z"/>
<path d="M3660 2266 c0 -42 11 -56 41 -56 27 0 29 3 29 40 0 22 -4 40 -10 40
-5 0 -10 -16 -10 -35 0 -24 -5 -35 -15 -35 -10 0 -15 11 -15 35 0 19 -4 35
-10 35 -5 0 -10 -11 -10 -24z"/>
<path d="M3751 2245 c2 -33 3 -35 6 -10 2 17 11 35 20 42 13 10 13 12 -6 10
-18 -1 -21 -7 -20 -42z"/>
<path d="M3800 2271 c-15 -29 4 -63 32 -59 12 2 24 10 26 18 5 13 3 13 -11 2
-9 -8 -21 -11 -27 -7 -19 11 -10 25 16 25 19 0 25 5 22 18 -5 25 -44 27 -58 3z
m45 -1 c3 -5 -3 -10 -15 -10 -12 0 -18 5 -15 10 3 6 10 10 15 10 5 0 12 -4 15
-10z"/>
<path d="M3972 2278 c-16 -16 -15 -43 3 -58 16 -14 45 -7 45 11 0 8 -5 8 -16
-2 -13 -10 -17 -10 -25 2 -5 8 -9 16 -9 19 0 3 4 11 9 19 8 13 12 13 27 0 15
-12 17 -12 12 1 -6 20 -30 24 -46 8z"/>
<path d="M4044 2276 c-11 -29 1 -61 23 -64 29 -4 48 30 33 58 -12 23 -48 27
-56 6z m41 -26 c0 -27 -22 -39 -31 -16 -8 22 3 49 19 43 6 -2 12 -14 12 -27z"/>
<path d="M4120 2250 c0 -22 5 -40 10 -40 6 0 10 16 10 36 0 46 23 41 31 -7 l6
-34 4 34 c6 48 29 53 29 7 0 -20 5 -36 11 -36 6 0 9 16 7 37 l-3 38 -52 2 -53
3 0 -40z"/>
<path d="M4333 2250 c0 -25 2 -35 4 -22 2 12 2 32 0 45 -2 12 -4 2 -4 -23z"/>
<path d="M4371 2246 l2 -41 6 34 c8 43 28 51 37 14 10 -47 13 -50 11 -8 -2 36
-5 40 -29 41 -26 1 -28 -1 -27 -40z"/>
<path d="M4450 2271 c-15 -29 4 -63 32 -59 12 2 24 10 26 18 5 13 3 13 -11 2
-9 -8 -21 -11 -27 -7 -19 11 -10 25 16 25 19 0 25 5 22 18 -5 25 -44 27 -58 3z
m45 -1 c3 -5 -3 -10 -15 -10 -12 0 -18 5 -15 10 3 6 10 10 15 10 5 0 12 -4 15
-10z"/>
<path d="M1655 2210 c3 -5 8 -10 11 -10 2 0 4 5 4 10 0 6 -5 10 -11 10 -5 0
-7 -4 -4 -10z"/>
<path d="M3885 2210 c3 -5 8 -10 11 -10 2 0 4 5 4 10 0 6 -5 10 -11 10 -5 0
-7 -4 -4 -10z"/>
<path d="M3168 2063 c1062 -2 2802 -2 3865 0 1062 1 193 2 -1933 2 -2126 0
-2995 -1 -1932 -2z"/>
<path d="M1757 2014 c-17 -17 -5 -43 23 -53 17 -5 30 -15 30 -21 0 -20 -31
-23 -50 -5 -21 19 -28 7 -8 -13 29 -29 94 1 69 32 -7 8 -23 17 -36 20 -14 4
-25 11 -25 17 0 17 29 22 47 8 14 -12 16 -12 11 1 -5 16 -49 26 -61 14z"/>
<path d="M1971 1963 c1 -40 3 -50 8 -33 5 18 16 26 36 30 24 4 30 10 30 30 0
22 -5 25 -37 28 l-38 3 1 -58z m59 27 c0 -15 -7 -20 -25 -20 -24 0 -34 18 -18
33 15 15 43 7 43 -13z"/>
<path d="M4102 1965 c0 -61 1 -62 12 -12 9 37 29 30 38 -14 6 -34 6 -34 5 6
-2 33 -6 40 -22 40 -11 0 -23 9 -27 20 -3 11 -6 -7 -6 -40z"/>
<path d="M6530 1965 c0 -59 17 -76 22 -23 4 46 28 49 28 4 0 -20 5 -36 10 -36
11 0 13 39 4 64 -3 9 -15 16 -25 16 -10 0 -19 7 -19 15 0 8 -4 15 -10 15 -5 0
-10 -25 -10 -55z"/>
<path d="M6901 1969 c-1 -54 0 -56 25 -55 51 2 59 71 8 71 -10 0 -22 9 -26 20
-3 12 -6 -4 -7 -36z m44 -19 c0 -27 -22 -39 -31 -16 -8 22 3 49 19 43 6 -2 12
-14 12 -27z"/>
<path d="M7412 1995 c-16 -35 -15 -65 4 -95 9 -14 13 -17 10 -7 -15 48 -16 65
-6 91 13 36 7 45 -8 11z"/>
<path d="M7452 1965 c0 -61 1 -62 12 -12 9 37 29 30 38 -14 6 -34 6 -34 5 6
-2 33 -6 40 -22 40 -11 0 -23 9 -27 20 -3 11 -6 -7 -6 -40z"/>
<path d="M1848 2000 c-5 -17 3 -90 11 -90 3 0 5 21 4 46 -1 46 -8 65 -15 44z"/>
<path d="M3588 2000 c-5 -17 3 -90 11 -90 3 0 5 21 4 46 -1 46 -8 65 -15 44z"/>
<path d="M3983 1995 c-8 -9 -9 -16 -3 -20 6 -3 10 -19 10 -36 0 -16 3 -29 8
-29 7 0 8 88 0 95 -1 1 -9 -3 -15 -10z"/>
<path d="M6278 2000 c-5 -17 3 -90 11 -90 3 0 5 21 4 46 -1 46 -8 65 -15 44z"/>
<path d="M6493 1995 c-8 -9 -9 -16 -3 -20 6 -3 10 -19 10 -36 0 -16 3 -29 8
-29 7 0 8 88 0 95 -1 1 -9 -3 -15 -10z"/>
<path d="M7955 1945 c0 -44 3 -59 9 -48 11 21 11 92 0 103 -5 5 -9 -18 -9 -55z"/>
<path d="M1890 1975 c-26 -31 13 -82 44 -56 19 16 21 42 4 59 -16 16 -33 15
-48 -3z m45 -26 c0 -28 -29 -38 -39 -13 -7 19 11 47 28 41 6 -2 11 -14 11 -28z"/>
<path d="M3517 1983 c-13 -13 -7 -31 13 -36 11 -3 20 -10 20 -16 0 -14 -27
-14 -33 -1 -3 6 -4 5 -3 -2 3 -17 48 -17 53 -1 3 7 -7 18 -21 24 -26 12 -26
35 0 25 8 -3 14 -1 14 4 0 11 -33 14 -43 3z"/>
<path d="M3630 1975 c-26 -31 13 -82 44 -56 19 16 21 42 4 59 -16 16 -33 15
-48 -3z m45 -26 c0 -28 -29 -38 -39 -13 -7 19 11 47 28 41 6 -2 11 -14 11 -28z"/>
<path d="M3711 1933 c1 -32 4 -48 6 -37 3 16 10 20 23 17 12 -3 22 3 29 16 16
29 -2 61 -34 61 -24 0 -25 -3 -24 -57z m44 17 c0 -27 -22 -39 -31 -16 -8 22 3
49 19 43 6 -2 12 -14 12 -27z"/>
<path d="M3793 1950 c13 -47 24 -51 34 -13 l6 28 10 -28 c12 -38 23 -34 35 13
5 23 6 40 1 40 -5 0 -9 -9 -9 -19 0 -29 -18 -35 -22 -9 -4 29 -21 26 -29 -4
-6 -23 -6 -22 -14 5 -4 15 -11 27 -15 27 -4 0 -2 -18 3 -40z"/>
<path d="M3905 1980 c-5 -9 -1 -10 13 -6 11 4 23 2 27 -3 3 -6 -6 -13 -20 -17
-37 -9 -29 -39 11 -41 30 -1 30 0 25 35 -5 28 -12 38 -28 40 -11 2 -24 -2 -28
-8z m45 -40 c0 -13 -28 -25 -38 -16 -3 4 0 11 8 16 20 13 30 12 30 0z"/>
<path d="M4032 1978 c-16 -16 -15 -43 3 -58 16 -14 45 -7 45 11 0 8 -5 8 -16
-2 -13 -10 -17 -10 -25 2 -5 8 -9 16 -9 19 0 3 4 11 9 19 8 13 12 13 27 0 15
-12 17 -12 12 1 -6 20 -30 24 -46 8z"/>
<path d="M6114 1976 c-12 -31 0 -61 25 -61 13 0 27 7 29 15 4 13 3 13 -11 2
-9 -8 -21 -11 -27 -7 -20 12 -10 25 20 25 28 0 30 2 20 20 -12 23 -48 27 -56
6z m41 -6 c3 -5 -3 -10 -15 -10 -12 0 -18 5 -15 10 3 6 10 10 15 10 5 0 12 -4
15 -10z"/>
<path d="M6190 1948 c0 -46 17 -51 22 -6 4 46 28 49 28 4 0 -20 5 -36 10 -36
12 0 13 50 2 68 -5 6 -20 11 -35 10 -24 -2 -27 -6 -27 -40z"/>
<path d="M6320 1971 c-15 -29 4 -63 32 -59 12 2 24 10 26 18 5 13 3 13 -11 2
-9 -8 -21 -11 -27 -7 -19 11 -10 25 16 25 19 0 25 5 22 18 -5 25 -44 27 -58 3z
m45 -1 c3 -5 -3 -10 -15 -10 -12 0 -18 5 -15 10 3 6 10 10 15 10 5 0 12 -4 15
-10z"/>
<path d="M6401 1945 l1 -40 8 34 c4 18 14 37 21 42 10 6 7 8 -9 6 -19 -1 -22
-7 -21 -42z"/>
<path d="M6620 1971 c-15 -29 4 -63 32 -59 12 2 24 10 26 18 5 13 3 13 -11 2
-9 -8 -21 -11 -27 -7 -19 11 -10 25 16 25 19 0 25 5 22 18 -5 25 -44 27 -58 3z
m45 -1 c3 -5 -3 -10 -15 -10 -12 0 -18 5 -15 10 3 6 10 10 15 10 5 0 12 -4 15
-10z"/>
<path d="M6747 1983 c-15 -14 -6 -31 19 -37 20 -5 24 -10 16 -18 -8 -8 -16 -7
-28 3 -15 12 -17 12 -12 -1 7 -21 52 -19 56 2 2 12 -5 19 -22 24 -14 3 -23 10
-20 15 3 6 15 7 26 3 14 -4 18 -2 14 5 -8 12 -39 15 -49 4z"/>
<path d="M6823 1955 c2 -36 5 -40 30 -41 25 -1 27 1 26 40 l-2 41 -6 -35 c-4
-22 -12 -35 -21 -35 -9 0 -18 13 -22 35 l-6 35 1 -40z"/>
<path d="M6980 1950 c0 -22 5 -40 10 -40 6 0 10 16 10 36 0 46 23 41 31 -7 l6
-34 4 34 c6 48 29 53 29 7 0 -20 5 -36 11 -36 6 0 9 16 7 37 l-3 38 -52 2 -53
3 0 -40z"/>
<path d="M7110 1971 c-15 -29 4 -63 32 -59 12 2 24 10 26 18 5 13 3 13 -11 2
-9 -8 -21 -11 -27 -7 -19 11 -10 25 16 25 19 0 25 5 22 18 -5 25 -44 27 -58 3z
m45 -1 c3 -5 -3 -10 -15 -10 -12 0 -18 5 -15 10 3 6 10 10 15 10 5 0 12 -4 15
-10z"/>
<path d="M7191 1946 c1 -42 3 -41 13 7 9 37 29 30 38 -14 6 -34 6 -34 5 6 -2
36 -5 40 -29 41 -26 1 -28 -1 -27 -40z"/>
<path d="M7270 1966 c0 -42 11 -56 41 -56 27 0 29 3 29 40 0 22 -4 40 -10 40
-5 0 -10 -16 -10 -35 0 -24 -5 -35 -15 -35 -10 0 -15 11 -15 35 0 19 -4 35
-10 35 -5 0 -10 -11 -10 -24z"/>
<path d="M7581 1948 c2 -41 2 -42 8 -10 3 18 11 33 16 33 6 0 13 -15 16 -33
l6 -33 4 35 c2 23 9 35 19 35 9 0 18 -13 22 -35 l6 -35 -1 40 -2 40 -47 3 -48
2 1 -42z"/>
<path d="M7700 1971 c-15 -29 4 -63 32 -59 12 2 24 10 26 18 5 13 3 13 -11 2
-9 -8 -21 -11 -27 -7 -19 11 -10 25 16 25 19 0 25 5 22 18 -5 25 -44 27 -58 3z
m45 -1 c3 -5 -3 -10 -15 -10 -12 0 -18 5 -15 10 3 6 10 10 15 10 5 0 12 -4 15
-10z"/>
<path d="M7780 1948 c0 -46 17 -51 22 -6 4 46 28 49 28 4 0 -20 5 -36 10 -36
12 0 13 50 2 68 -5 6 -20 11 -35 10 -24 -2 -27 -6 -27 -40z"/>
<path d="M7860 1966 c0 -42 11 -56 41 -56 27 0 29 3 29 40 0 22 -4 40 -10 40
-5 0 -10 -16 -10 -35 0 -24 -5 -35 -15 -35 -10 0 -15 11 -15 35 0 19 -4 35
-10 35 -5 0 -10 -11 -10 -24z"/>
<path d="M3168 1803 c1062 -2 2802 -2 3865 0 1062 1 193 2 -1933 2 -2126 0
-2995 -1 -1932 -2z"/>
<path d="M1790 1705 c0 -30 5 -55 10 -55 6 0 10 25 10 55 0 30 -4 55 -10 55
-5 0 -10 -25 -10 -55z"/>
<path d="M1830 1705 c0 -61 20 -77 21 -17 l1 37 12 -35 c7 -19 16 -35 21 -35
5 0 14 16 21 35 l12 35 1 -37 c1 -61 21 -44 21 18 0 67 -17 69 -38 4 -16 -48
-16 -47 -42 23 -16 44 -30 31 -30 -28z"/>
<path d="M1960 1705 l0 -55 43 1 42 2 -35 6 c-49 8 -55 41 -8 42 l33 1 -30 7
c-42 9 -39 34 5 42 l35 6 -42 2 -43 1 0 -55z"/>
<path d="M3643 1745 c-11 -18 -4 -95 8 -95 5 0 9 15 10 33 0 17 2 42 3 55 3
25 -9 29 -21 7z"/>
<path d="M4270 1742 c0 -13 -7 -18 -21 -18 -12 1 -26 -7 -33 -16 -15 -25 4
-53 38 -54 25 -1 26 1 26 52 0 30 -2 54 -5 54 -3 0 -5 -8 -5 -18z m-11 -36
c13 -16 4 -46 -14 -46 -16 0 -26 25 -19 45 8 19 18 19 33 1z"/>
<path d="M4390 1741 c0 -14 -5 -18 -19 -14 -13 3 -23 -2 -30 -16 -16 -30 2
-61 34 -59 23 2 25 6 25 55 0 29 -2 53 -5 53 -3 0 -5 -9 -5 -19z m-5 -51 c0
-27 -22 -39 -31 -16 -8 22 3 49 19 43 6 -2 12 -14 12 -27z"/>
<path d="M6030 1705 c0 -59 17 -76 22 -23 4 46 28 49 28 4 0 -20 5 -36 10 -36
11 0 13 39 4 64 -3 9 -15 16 -25 16 -10 0 -19 7 -19 15 0 8 -4 15 -10 15 -5 0
-10 -25 -10 -55z"/>
<path d="M6401 1709 c-1 -54 0 -56 25 -55 51 2 59 71 8 71 -10 0 -22 9 -26 20
-3 12 -6 -4 -7 -36z m44 -19 c0 -13 -6 -25 -12 -27 -16 -6 -27 21 -19 43 9 23
31 11 31 -16z"/>
<path d="M6903 1745 c-11 -18 -4 -95 8 -95 5 0 9 15 10 33 0 17 2 42 3 55 3
25 -9 29 -21 7z"/>
<path d="M7660 1742 c0 -13 -7 -18 -21 -18 -12 1 -26 -7 -33 -16 -15 -25 4
-53 38 -54 25 -1 26 1 26 52 0 30 -2 54 -5 54 -3 0 -5 -8 -5 -18z m-5 -52 c0
-27 -22 -39 -31 -16 -8 22 3 49 19 43 6 -2 12 -14 12 -27z"/>
<path d="M7780 1746 c0 -8 -10 -16 -22 -18 -19 -2 -23 -9 -23 -38 0 -33 2 -35
33 -36 l32 -1 0 54 c0 29 -4 53 -10 53 -5 0 -10 -6 -10 -14z m-5 -56 c0 -27
-22 -39 -31 -16 -8 22 3 49 19 43 6 -2 12 -14 12 -27z"/>
<path d="M1748 1738 c-6 -20 6 -81 17 -85 8 -2 11 35 6 90 -1 12 -19 8 -23 -5z"/>
<path d="M3233 1735 c-8 -9 -9 -16 -3 -20 6 -3 10 -19 10 -36 0 -16 4 -29 8
-29 4 0 6 16 4 36 -3 28 -1 35 9 32 8 -3 15 -19 17 -36 2 -18 6 -32 10 -32 8
0 6 89 -2 97 -3 4 -6 1 -6 -5 0 -14 -27 -16 -32 -3 -1 5 -9 3 -15 -4z"/>
<path d="M3723 1735 c-8 -9 -9 -16 -3 -20 6 -3 10 -19 10 -36 0 -16 3 -29 8
-29 7 0 8 88 0 95 -1 1 -9 -3 -15 -10z"/>
<path d="M4508 1740 c-5 -17 3 -90 11 -90 3 0 5 21 4 46 -1 46 -8 65 -15 44z"/>
<path d="M5778 1740 c-5 -17 3 -90 11 -90 3 0 5 21 4 46 -1 46 -8 65 -15 44z"/>
<path d="M5993 1735 c-8 -9 -9 -16 -3 -20 6 -3 10 -19 10 -36 0 -16 3 -29 8
-29 7 0 8 88 0 95 -1 1 -9 -3 -15 -10z"/>
<path d="M7118 1740 c-5 -17 3 -90 11 -90 3 0 5 21 4 46 -1 46 -8 65 -15 44z"/>
<path d="M7898 1739 c-2 -6 -2 -28 0 -50 3 -28 9 -39 21 -38 10 0 11 2 4 6
-15 5 -18 60 -4 65 5 2 3 8 -4 15 -9 8 -15 9 -17 2z"/>
<path d="M8223 1735 c-8 -9 -9 -16 -3 -20 6 -3 10 -19 10 -36 0 -16 3 -29 8
-29 7 0 8 88 0 95 -1 1 -9 -3 -15 -10z"/>
<path d="M8268 1740 c-5 -17 3 -90 11 -90 3 0 5 21 4 46 -1 46 -8 65 -15 44z"/>
<path d="M3077 1723 c-13 -12 -7 -22 19 -36 18 -9 23 -16 15 -21 -7 -4 -19 -2
-28 6 -14 11 -15 11 -11 -2 2 -8 15 -15 29 -15 30 0 38 31 10 40 -12 3 -21 11
-21 16 0 6 9 7 21 4 15 -5 19 -4 15 4 -8 12 -39 15 -49 4z"/>
<path d="M3154 1716 c-12 -31 0 -61 25 -61 13 0 27 7 29 15 4 13 3 13 -11 2
-9 -8 -21 -11 -27 -7 -20 12 -10 25 20 25 28 0 30 2 20 20 -12 23 -48 27 -56
6z m41 -6 c3 -5 -3 -10 -15 -10 -12 0 -18 5 -15 10 3 6 10 10 15 10 5 0 12 -4
15 -10z"/>
<path d="M3323 1690 c0 -25 2 -35 4 -22 2 12 2 32 0 45 -2 12 -4 2 -4 -23z"/>
<path d="M3351 1686 l2 -41 6 35 c4 22 12 35 21 35 9 0 18 -13 22 -35 l6 -35
-1 40 c-2 36 -5 40 -29 41 -26 1 -28 -1 -27 -40z"/>
<path d="M3434 1716 c-12 -31 0 -61 24 -60 12 0 21 -4 19 -10 -2 -6 -15 -10
-28 -8 -17 2 -21 0 -12 -9 6 -6 19 -9 29 -7 15 2 20 14 22 53 3 48 2 51 -23
53 -15 1 -28 -4 -31 -12z m41 -26 c0 -27 -22 -39 -31 -16 -8 22 3 49 19 43 6
-2 12 -14 12 -27z"/>
<path d="M3560 1711 c-15 -29 4 -63 33 -59 18 2 22 10 22 38 0 28 -4 36 -22
38 -14 2 -26 -4 -33 -17z m45 -21 c0 -13 -6 -25 -12 -27 -16 -6 -27 21 -19 43
9 23 31 11 31 -16z"/>
<path d="M3773 1690 c0 -25 2 -35 4 -22 2 12 2 32 0 45 -2 12 -4 2 -4 -23z"/>
<path d="M3801 1686 l2 -41 6 34 c8 48 31 53 31 7 0 -20 5 -36 10 -36 6 0 10
16 10 36 0 46 22 41 32 -7 6 -34 6 -34 5 6 l-2 40 -47 1 -48 1 1 -41z"/>
<path d="M3930 1715 c-26 -32 13 -82 44 -55 9 7 14 15 11 18 -2 3 -11 -1 -19
-7 -8 -7 -20 -10 -26 -6 -20 12 -10 25 20 25 32 0 37 9 18 28 -16 16 -33 15
-48 -3z m40 -5 c0 -5 -9 -10 -21 -10 -11 0 -17 5 -14 10 3 6 13 10 21 10 8 0
14 -4 14 -10z"/>
<path d="M4055 1720 c-5 -9 -1 -10 13 -6 11 4 23 2 27 -4 3 -5 0 -10 -7 -10
-10 0 -10 -2 1 -9 16 -11 6 -31 -16 -31 -9 0 -13 6 -9 15 6 15 -9 21 -18 7
-10 -16 10 -31 40 -30 29 1 30 2 25 37 -5 27 -12 37 -28 39 -11 2 -24 -2 -28
-8z"/>
<path d="M4131 1686 c1 -42 3 -41 13 7 9 37 29 30 38 -14 6 -34 6 -34 5 6 -2
36 -5 40 -29 41 -26 1 -28 -1 -27 -40z"/>
<path d="M4425 1720 c-5 -9 -1 -10 13 -6 11 4 23 2 27 -3 3 -6 -6 -13 -20 -17
-37 -9 -29 -39 11 -41 30 -1 30 0 25 35 -5 28 -12 38 -28 40 -11 2 -24 -2 -28
-8z m45 -39 c0 -14 -18 -23 -31 -15 -8 4 -7 9 2 15 18 11 29 11 29 0z"/>
<path d="M4550 1711 c-15 -29 4 -63 32 -59 12 2 24 10 26 18 5 13 3 13 -11 2
-9 -8 -21 -11 -27 -7 -19 11 -10 25 16 25 19 0 25 5 22 18 -5 25 -44 27 -58 3z
m45 -1 c3 -5 -3 -10 -15 -10 -12 0 -18 5 -15 10 3 6 10 10 15 10 5 0 12 -4 15
-10z"/>
<path d="M5614 1716 c-12 -31 0 -61 25 -61 13 0 27 7 29 15 4 13 3 13 -11 2
-9 -8 -21 -11 -27 -7 -20 12 -10 25 20 25 28 0 30 2 20 20 -12 23 -48 27 -56
6z m41 -6 c3 -5 -3 -10 -15 -10 -12 0 -18 5 -15 10 3 6 10 10 15 10 5 0 12 -4
15 -10z"/>
<path d="M5690 1688 c0 -46 17 -51 22 -6 4 46 28 49 28 4 0 -20 5 -36 10 -36
12 0 13 50 2 68 -5 6 -20 11 -35 10 -24 -2 -27 -6 -27 -40z"/>
<path d="M5820 1711 c-15 -29 4 -63 32 -59 12 2 24 10 26 18 5 13 3 13 -11 2
-9 -8 -21 -11 -27 -7 -19 11 -10 25 16 25 19 0 25 5 22 18 -5 25 -44 27 -58 3z
m45 -1 c3 -5 -3 -10 -15 -10 -12 0 -18 5 -15 10 3 6 10 10 15 10 5 0 12 -4 15
-10z"/>
<path d="M5901 1685 l1 -40 8 34 c4 18 14 37 21 42 10 6 7 8 -9 6 -19 -1 -22
-7 -21 -42z"/>
<path d="M6120 1711 c-15 -29 4 -63 32 -59 12 2 24 10 26 18 5 13 3 13 -11 2
-9 -8 -21 -11 -27 -7 -19 11 -10 25 16 25 19 0 25 5 22 18 -5 25 -44 27 -58 3z
m45 -1 c3 -5 -3 -10 -15 -10 -12 0 -18 5 -15 10 3 6 10 10 15 10 5 0 12 -4 15
-10z"/>
<path d="M6247 1723 c-15 -14 -6 -31 19 -37 20 -5 24 -10 16 -18 -8 -8 -16 -7
-28 3 -15 12 -17 12 -12 -1 7 -21 52 -19 56 2 2 12 -5 19 -22 24 -14 3 -23 10
-20 15 3 6 15 7 26 3 14 -4 18 -2 14 5 -8 12 -39 15 -49 4z"/>
<path d="M6323 1695 c2 -36 5 -40 30 -41 25 -1 27 1 26 40 l-2 41 -6 -35 c-4
-22 -12 -35 -21 -35 -9 0 -18 13 -22 35 l-6 35 1 -40z"/>
<path d="M6480 1690 c0 -22 5 -40 10 -40 6 0 10 16 10 36 0 46 23 41 31 -7 l6
-34 4 34 c6 48 29 53 29 7 0 -20 5 -36 11 -36 6 0 9 16 7 37 l-3 38 -52 2 -53
3 0 -40z"/>
<path d="M6610 1711 c-15 -29 4 -63 32 -59 12 2 24 10 26 18 5 13 3 13 -11 2
-9 -8 -21 -11 -27 -7 -19 11 -10 25 16 25 19 0 25 5 22 18 -5 25 -44 27 -58 3z
m45 -1 c3 -5 -3 -10 -15 -10 -12 0 -18 5 -15 10 3 6 10 10 15 10 5 0 12 -4 15
-10z"/>
<path d="M6691 1686 c1 -42 3 -41 13 7 9 37 29 30 38 -14 6 -34 6 -34 5 6 -2
36 -5 40 -29 41 -26 1 -28 -1 -27 -40z"/>
<path d="M6770 1706 c0 -42 11 -56 41 -56 27 0 29 3 29 40 0 22 -4 40 -10 40
-5 0 -10 -16 -10 -35 0 -24 -5 -35 -15 -35 -10 0 -15 11 -15 35 0 19 -4 35
-10 35 -5 0 -10 -11 -10 -24z"/>
<path d="M6944 1716 c-11 -29 1 -61 23 -64 29 -4 48 30 33 58 -12 23 -48 27
-56 6z m41 -26 c0 -27 -22 -39 -31 -16 -8 22 3 49 19 43 6 -2 12 -14 12 -27z"/>
<path d="M7031 1686 c2 -34 3 -36 6 -11 3 17 9 35 14 41 5 7 3 11 -6 11 -11 0
-15 -11 -14 -41z"/>
<path d="M7163 1690 c0 -25 2 -35 4 -22 2 12 2 32 0 45 -2 12 -4 2 -4 -23z"/>
<path d="M7191 1685 l2 -40 6 35 c4 22 12 35 21 35 9 0 17 -13 21 -35 l6 -35
4 34 c6 49 27 51 32 4 l4 -38 1 41 2 42 -50 -1 -50 -1 1 -41z"/>
<path d="M7321 1716 c-16 -19 -11 -46 11 -60 14 -8 21 -7 35 9 17 18 17 18 0
5 -15 -11 -20 -11 -35 3 -15 16 -14 17 17 17 26 0 32 4 29 18 -4 22 -41 27
-57 8z m44 -6 c3 -5 -3 -10 -14 -10 -12 0 -21 5 -21 10 0 6 6 10 14 10 8 0 18
-4 21 -10z"/>
<path d="M7445 1720 c-5 -9 -1 -10 13 -6 11 4 23 2 27 -3 3 -6 -6 -13 -20 -17
-37 -9 -29 -39 11 -41 30 -1 30 0 25 35 -5 28 -12 38 -28 40 -11 2 -24 -2 -28
-8z m45 -40 c0 -13 -28 -25 -38 -16 -3 4 0 11 8 16 20 13 30 12 30 0z"/>
<path d="M7520 1688 c0 -46 17 -51 22 -6 4 46 28 49 28 4 0 -20 5 -36 10 -36
12 0 13 50 2 68 -5 6 -20 11 -35 10 -24 -2 -27 -6 -27 -40z"/>
<path d="M7826 1721 c-4 -5 3 -7 14 -4 29 8 25 -12 -6 -26 -34 -15 -26 -36 14
-36 26 -1 32 3 32 21 0 12 -3 29 -6 38 -7 17 -39 22 -48 7z m34 -40 c0 -12
-20 -25 -27 -18 -7 7 6 27 18 27 5 0 9 -4 9 -9z"/>
<path d="M7944 1716 c-12 -31 0 -61 25 -61 13 0 27 7 29 15 4 13 3 13 -11 2
-9 -8 -21 -11 -27 -7 -20 12 -10 25 20 25 28 0 30 2 20 20 -12 23 -48 27 -56
6z m41 -6 c3 -5 -3 -10 -15 -10 -12 0 -18 5 -15 10 3 6 10 10 15 10 5 0 12 -4
15 -10z"/>
<path d="M8067 1723 c-13 -12 -7 -22 19 -36 18 -9 23 -16 15 -21 -7 -4 -19 -2
-28 6 -14 11 -15 11 -11 -2 2 -8 15 -15 29 -15 30 0 38 31 10 40 -12 3 -21 11
-21 16 0 6 9 7 21 4 15 -5 19 -4 15 4 -8 12 -39 15 -49 4z"/>
<path d="M8144 1716 c-12 -31 0 -61 25 -61 13 0 27 7 29 15 4 13 3 13 -11 2
-9 -8 -21 -11 -27 -7 -20 12 -10 25 20 25 28 0 30 2 20 20 -12 23 -48 27 -56
6z m41 -6 c3 -5 -3 -10 -15 -10 -12 0 -18 5 -15 10 3 6 10 10 15 10 5 0 12 -4
15 -10z"/>
<path d="M8313 1690 c0 -25 2 -35 4 -22 2 12 2 32 0 45 -2 12 -4 2 -4 -23z"/>
<path d="M8341 1686 c1 -42 3 -41 13 7 9 37 29 30 38 -14 6 -34 6 -34 5 6 -2
36 -5 40 -29 41 -26 1 -28 -1 -27 -40z"/>
<path d="M8424 1716 c-12 -31 0 -61 24 -60 12 0 21 -4 19 -10 -2 -6 -15 -10
-28 -8 -17 2 -21 0 -12 -9 6 -6 19 -9 29 -7 15 2 20 14 22 53 3 48 2 51 -23
53 -15 1 -28 -4 -31 -12z m41 -26 c0 -27 -22 -39 -31 -16 -8 22 3 49 19 43 6
-2 12 -14 12 -27z"/>
<path d="M3168 1543 c1062 -2 2802 -2 3865 0 1062 1 193 2 -1933 2 -2126 0
-2995 -1 -1932 -2z"/>
<path d="M1747 1494 c-17 -17 -5 -43 23 -53 17 -5 30 -15 30 -21 0 -20 -31
-23 -50 -5 -21 19 -28 7 -8 -13 29 -29 94 1 69 32 -7 8 -23 17 -36 20 -14 4
-25 11 -25 17 0 17 29 22 47 8 14 -12 16 -12 11 1 -5 16 -49 26 -61 14z"/>
<path d="M1849 1466 c12 -18 22 -44 22 -57 l1 -24 7 25 c3 14 14 40 24 58 10
17 14 32 9 32 -5 0 -14 -12 -21 -27 l-13 -27 -16 27 c-9 15 -20 27 -25 27 -5
0 1 -15 12 -34z"/>
<path d="M1947 1494 c-17 -17 -5 -43 23 -53 17 -5 30 -15 30 -21 0 -20 -31
-23 -50 -5 -21 19 -28 7 -8 -13 29 -29 94 1 69 32 -7 8 -23 17 -36 20 -14 4
-25 11 -25 17 0 17 29 22 47 8 14 -12 16 -12 11 1 -5 16 -49 26 -61 14z"/>
<path d="M6542 1445 c1 -47 2 -52 7 -25 4 22 12 35 21 35 9 0 18 -13 22 -35
l6 -35 -1 40 c-2 33 -6 40 -22 40 -11 0 -23 9 -27 20 -3 11 -6 -7 -6 -40z"/>
<path d="M6900 1444 l0 -55 33 3 c29 3 32 6 32 38 0 29 -4 36 -22 38 -13 2
-23 10 -23 18 0 8 -4 14 -10 14 -5 0 -10 -25 -10 -56z m55 -14 c0 -13 -6 -25
-12 -27 -16 -6 -27 21 -19 43 9 23 31 11 31 -16z"/>
<path d="M7420 1481 c-15 -29 -12 -84 6 -107 15 -18 15 -18 5 3 -14 28 -14 79
-1 104 6 10 8 19 6 19 -3 0 -10 -9 -16 -19z"/>
<path d="M7949 1483 c6 -12 11 -36 11 -53 0 -17 -5 -41 -11 -53 -10 -21 -10
-21 5 -3 9 11 16 36 16 56 0 20 -7 45 -16 56 -15 18 -15 18 -5 -3z"/>
<path d="M2038 1480 c-5 -17 3 -90 11 -90 3 0 5 21 4 46 -1 46 -8 65 -15 44z"/>
<path d="M3628 1478 c-6 -20 6 -81 17 -85 8 -2 11 35 6 90 -1 12 -19 8 -23 -5z"/>
<path d="M6278 1478 c-6 -20 6 -81 17 -85 8 -2 11 35 6 90 -1 12 -19 8 -23 -5z"/>
<path d="M6498 1479 c-2 -6 -2 -28 0 -50 3 -28 9 -39 21 -38 10 0 11 2 4 6
-15 5 -18 60 -4 65 5 2 3 8 -4 15 -9 8 -15 9 -17 2z"/>
<path d="M3407 1463 c-13 -12 -7 -22 19 -36 18 -9 23 -16 15 -21 -7 -4 -19 -2
-28 6 -14 11 -15 11 -11 -2 2 -8 15 -15 29 -15 30 0 38 31 10 40 -12 3 -21 11
-21 16 0 6 9 7 21 4 15 -5 19 -4 15 4 -8 12 -39 15 -49 4z"/>
<path d="M3485 1429 c12 -34 13 -45 3 -57 -11 -12 -10 -14 1 -11 14 5 55 98
47 107 -3 2 -11 -8 -17 -24 l-12 -29 -10 28 c-17 44 -28 31 -12 -14z"/>
<path d="M3557 1463 c-13 -12 -7 -22 19 -36 18 -9 23 -16 15 -21 -7 -4 -19 -2
-28 6 -14 11 -15 11 -11 -2 2 -8 15 -15 29 -15 30 0 38 31 10 40 -12 3 -21 11
-21 16 0 6 9 7 21 4 15 -5 19 -4 15 4 -8 12 -39 15 -49 4z"/>
<path d="M3674 1456 c-12 -31 0 -61 25 -61 13 0 27 7 29 15 4 13 3 13 -11 2
-9 -8 -21 -11 -27 -7 -20 12 -10 25 20 25 28 0 30 2 20 20 -12 23 -48 27 -56
6z m41 -6 c3 -5 -3 -10 -15 -10 -12 0 -18 5 -15 10 3 6 10 10 15 10 5 0 12 -4
15 -10z"/>
<path d="M3750 1430 c0 -22 5 -40 10 -40 6 0 10 16 10 36 0 46 23 41 31 -7 l6
-34 4 34 c6 48 29 53 29 7 0 -20 5 -36 11 -36 6 0 9 16 7 37 l-3 38 -52 2 -53
3 0 -40z"/>
<path d="M3921 1425 l2 -40 6 35 c4 22 12 35 21 35 9 0 17 -13 21 -35 l6 -35
4 34 c6 49 27 51 32 4 l4 -38 1 41 2 42 -50 -1 -50 -1 1 -41z"/>
<path d="M4051 1456 c-16 -19 -11 -46 11 -60 14 -8 21 -7 35 9 17 18 17 18 0
5 -15 -11 -20 -11 -35 3 -15 16 -14 17 17 17 26 0 32 4 29 18 -4 22 -41 27
-57 8z m44 -6 c3 -5 -3 -10 -14 -10 -12 0 -21 5 -21 10 0 6 6 10 14 10 8 0 18
-4 21 -10z"/>
<path d="M4131 1426 l2 -41 6 35 c4 22 12 35 21 35 9 0 18 -13 22 -35 l6 -35
-1 40 c-2 36 -5 40 -29 41 -26 1 -28 -1 -27 -40z"/>
<path d="M4213 1435 c2 -36 5 -40 30 -43 26 -3 27 -2 26 40 -2 42 -2 42 -8 9
-8 -43 -28 -51 -37 -14 -10 47 -13 50 -11 8z"/>
<path d="M6121 1456 c-16 -19 -11 -46 11 -60 14 -8 21 -7 35 9 17 18 17 18 0
5 -15 -11 -20 -11 -35 3 -15 16 -14 17 17 17 26 0 32 4 29 18 -4 22 -41 27
-57 8z m44 -6 c3 -5 -3 -10 -14 -10 -12 0 -21 5 -21 10 0 6 6 10 14 10 8 0 18
-4 21 -10z"/>
<path d="M6201 1426 l2 -41 6 35 c4 22 12 35 21 35 9 0 18 -13 22 -35 l6 -35
-1 40 c-2 36 -5 40 -29 41 -26 1 -28 -1 -27 -40z"/>
<path d="M6330 1455 c-26 -32 13 -82 44 -55 9 7 14 15 11 18 -2 3 -11 -1 -19
-7 -8 -7 -20 -10 -26 -6 -20 12 -10 25 20 25 32 0 37 9 18 28 -16 16 -33 15
-48 -3z m40 -5 c0 -5 -9 -10 -21 -10 -11 0 -17 5 -14 10 3 6 13 10 21 10 8 0
14 -4 14 -10z"/>
<path d="M6411 1426 c2 -34 3 -36 6 -11 3 17 9 35 14 41 5 7 3 11 -6 11 -11 0
-15 -11 -14 -41z"/>
<path d="M6630 1455 c-26 -32 13 -82 44 -55 9 7 14 15 11 18 -2 3 -11 -1 -19
-7 -8 -7 -20 -10 -26 -6 -20 12 -10 25 20 25 32 0 37 9 18 28 -16 16 -33 15
-48 -3z m40 -5 c0 -5 -9 -10 -21 -10 -11 0 -17 5 -14 10 3 6 13 10 21 10 8 0
14 -4 14 -10z"/>
<path d="M6757 1463 c-13 -13 -7 -32 13 -38 11 -3 20 -11 20 -17 0 -6 -9 -8
-20 -5 -11 3 -20 1 -20 -4 0 -15 36 -10 50 6 10 12 7 17 -14 26 -31 15 -35 33
-5 24 15 -5 19 -4 15 4 -8 12 -29 15 -39 4z"/>
<path d="M6823 1435 c2 -36 5 -40 30 -43 26 -3 27 -2 26 40 -2 42 -2 42 -8 9
-8 -43 -28 -51 -37 -14 -10 47 -13 50 -11 8z"/>
<path d="M6991 1426 l2 -41 6 34 c8 48 31 53 31 7 0 -20 5 -36 10 -36 6 0 10
16 10 36 0 46 22 41 32 -7 6 -34 6 -34 5 6 l-2 40 -47 1 -48 1 1 -41z"/>
<path d="M7120 1455 c-26 -32 13 -82 44 -55 9 7 14 15 11 18 -2 3 -11 -1 -19
-7 -8 -7 -20 -10 -26 -6 -20 12 -10 25 20 25 32 0 37 9 18 28 -16 16 -33 15
-48 -3z m40 -5 c0 -5 -9 -10 -21 -10 -11 0 -17 5 -14 10 3 6 13 10 21 10 8 0
14 -4 14 -10z"/>
<path d="M7201 1426 l2 -41 6 34 c8 43 28 51 37 14 10 -47 13 -50 11 -8 -2 36
-5 40 -29 41 -26 1 -28 -1 -27 -40z"/>
<path d="M7283 1435 c2 -36 5 -40 30 -41 25 -1 27 1 26 40 l-2 41 -6 -35 c-4
-22 -12 -35 -21 -35 -9 0 -18 13 -22 35 l-6 35 1 -40z"/>
<path d="M7462 1458 c-16 -16 -15 -43 3 -58 16 -14 45 -7 45 11 0 8 -5 8 -16
-2 -13 -10 -17 -10 -25 2 -5 8 -9 16 -9 19 0 3 4 11 9 19 8 13 12 13 27 0 15
-12 17 -12 12 1 -6 20 -30 24 -46 8z"/>
<path d="M7571 1425 l2 -40 6 35 c4 22 12 35 21 35 9 0 17 -13 21 -35 l6 -35
4 34 c6 49 27 51 32 4 l4 -38 1 41 2 42 -50 -1 -50 -1 1 -41z"/>
<path d="M7701 1456 c-16 -19 -11 -46 11 -60 14 -8 21 -7 35 9 17 18 17 18 0
5 -15 -11 -20 -11 -35 3 -15 16 -14 17 17 17 26 0 32 4 29 18 -4 22 -41 27
-57 8z m44 -6 c3 -5 -3 -10 -14 -10 -12 0 -21 5 -21 10 0 6 6 10 14 10 8 0 18
-4 21 -10z"/>
<path d="M7781 1426 l2 -41 6 35 c4 22 12 35 21 35 9 0 18 -13 22 -35 l6 -35
-1 40 c-2 36 -5 40 -29 41 -26 1 -28 -1 -27 -40z"/>
<path d="M7863 1435 c2 -36 5 -40 30 -43 26 -3 27 -2 26 40 -2 42 -2 42 -8 9
-8 -43 -28 -51 -37 -14 -10 47 -13 50 -11 8z"/>
<path d="M3168 1283 c1062 -2 2802 -2 3865 0 1062 1 193 2 -1933 2 -2126 0
-2995 -1 -1932 -2z"/>
<path d="M1781 1116 c2 -34 3 -36 6 -11 3 17 9 35 14 41 5 7 3 11 -6 11 -11 0
-15 -11 -14 -41z"/>
<path d="M1910 1090 c0 -5 5 -10 11 -10 5 0 7 5 4 10 -3 6 -8 10 -11 10 -2 0
-4 -4 -4 -10z"/>
<path d="M6668 1083 c-2 -10 -1 -36 3 -58 l6 -40 2 38 c1 47 24 46 29 -1 2
-18 6 -32 10 -32 8 0 6 89 -2 97 -3 4 -6 1 -6 -5 0 -7 -7 -12 -16 -12 -10 0
-14 6 -10 15 3 8 2 15 -3 15 -5 0 -10 -8 -13 -17z"/>
<path d="M6507 1063 c-13 -12 -7 -22 19 -36 18 -9 23 -16 15 -21 -7 -4 -19 -2
-28 6 -14 11 -15 11 -11 -2 2 -8 15 -15 29 -15 30 0 38 31 10 40 -12 3 -21 11
-21 16 0 6 9 7 21 4 15 -5 19 -4 15 4 -8 12 -39 15 -49 4z"/>
<path d="M6584 1056 c-11 -29 1 -61 23 -64 29 -4 48 30 33 58 -12 23 -48 27
-56 6z m41 -26 c0 -13 -6 -25 -12 -27 -16 -6 -27 21 -19 43 9 23 31 11 31 -16z"/>
<path d="M6746 1040 c4 -19 8 -38 11 -43 8 -13 23 3 24 26 1 20 2 19 12 -5 13
-33 24 -36 31 -8 3 11 9 30 12 41 4 14 2 19 -5 15 -6 -4 -11 -16 -11 -27 0
-11 -4 -17 -10 -14 -5 3 -10 15 -10 26 0 28 -19 23 -26 -7 l-7 -27 -13 29 -14
29 6 -35z"/>
<path d="M6855 1060 c-5 -9 -1 -10 13 -6 11 4 23 2 27 -3 3 -6 -6 -13 -20 -17
-37 -9 -29 -39 11 -41 30 -1 30 0 25 35 -5 28 -12 38 -28 40 -11 2 -24 -2 -28
-8z m45 -39 c0 -14 -18 -23 -31 -15 -8 4 -7 9 2 15 18 11 29 11 29 0z"/>
<path d="M6941 1025 c2 -33 3 -35 6 -10 2 17 11 35 20 42 13 10 13 12 -6 10
-18 -1 -21 -7 -20 -42z"/>
<path d="M6990 1051 c-15 -29 4 -63 32 -59 12 2 24 10 26 18 5 13 3 13 -11 2
-9 -8 -21 -11 -27 -7 -19 11 -10 25 16 25 19 0 25 5 22 18 -5 25 -44 27 -58 3z
m45 -1 c3 -5 -3 -10 -15 -10 -12 0 -18 5 -15 10 3 6 10 10 15 10 5 0 12 -4 15
-10z"/>
<path d="M7111 1064 c-2 -17 20 -74 28 -74 9 0 34 70 27 77 -3 3 -8 -6 -12
-21 -8 -33 -17 -33 -31 2 -6 15 -11 22 -12 16z"/>
<path d="M7190 1051 c-15 -29 4 -63 32 -59 12 2 24 10 26 18 5 13 3 13 -11 2
-9 -8 -21 -11 -27 -7 -19 11 -10 25 16 25 19 0 25 5 22 18 -5 25 -44 27 -58 3z
m45 -1 c3 -5 -3 -10 -15 -10 -12 0 -18 5 -15 10 3 6 10 10 15 10 5 0 12 -4 15
-10z"/>
<path d="M7271 1025 l1 -40 8 34 c4 18 14 37 21 42 10 6 7 8 -9 6 -19 -1 -22
-7 -21 -42z"/>
<path d="M7327 1063 c-13 -13 -7 -31 13 -36 11 -3 20 -10 20 -16 0 -14 -27
-14 -33 -1 -3 6 -4 5 -3 -2 3 -17 48 -17 53 -1 3 7 -7 18 -21 24 -26 12 -26
35 0 25 8 -3 14 -1 14 4 0 11 -33 14 -43 3z"/>
<path d="M7403 1030 c0 -25 2 -35 4 -22 2 12 2 32 0 45 -2 12 -4 2 -4 -23z"/>
<path d="M7430 1051 c-15 -29 4 -63 33 -59 18 2 22 10 22 38 0 28 -4 36 -22
38 -14 2 -26 -4 -33 -17z m45 -21 c0 -27 -22 -39 -31 -16 -8 22 3 49 19 43 6
-2 12 -14 12 -27z"/>
<path d="M7511 1026 c1 -42 3 -41 13 7 9 37 29 30 38 -14 6 -34 6 -34 5 6 -2
36 -5 40 -29 41 -26 1 -28 -1 -27 -40z"/>
<path d="M1833 1053 c15 -2 37 -2 50 0 12 2 0 4 -28 4 -27 0 -38 -2 -22 -4z"/>
<path d="M1958 1053 c12 -2 32 -2 45 0 12 2 2 4 -23 4 -25 0 -35 -2 -22 -4z"/>
<path d="M1552 985 c-16 -35 -15 -65 4 -95 9 -14 13 -17 10 -7 -15 48 -16 65
-6 91 13 36 7 45 -8 11z"/>
<path d="M1942 998 c-6 -6 -12 -26 -12 -43 0 -52 39 -74 60 -34 14 25 -5 53
-32 46 -20 -6 -22 1 -9 22 8 13 12 13 27 0 15 -12 17 -12 12 1 -6 20 -30 24
-46 8z m35 -54 c8 -21 -13 -42 -28 -27 -13 13 -5 43 11 43 6 0 13 -7 17 -16z"/>
<path d="M2076 995 c-11 -8 -14 -15 -8 -15 7 0 12 -16 12 -40 0 -22 5 -40 10
-40 6 0 10 25 10 55 0 30 -1 55 -2 55 -2 0 -12 -7 -22 -15z"/>
<path d="M2157 1003 l33 -4 -21 -40 c-11 -22 -18 -46 -16 -52 3 -7 10 2 16 18
6 17 18 42 27 58 l15 27 -43 -2 c-37 -1 -38 -2 -11 -5z"/>
<path d="M2224 995 c3 -11 7 -30 10 -41 4 -12 2 -34 -4 -49 -6 -15 -8 -30 -6
-32 3 -3 10 13 16 34 10 32 9 45 -4 73 -9 19 -14 26 -12 15z"/>
<path d="M1590 961 c-15 -29 4 -63 32 -59 12 2 24 10 26 18 5 13 3 13 -11 2
-9 -8 -21 -11 -27 -7 -19 11 -10 25 16 25 19 0 25 5 22 18 -5 25 -44 27 -58 3z
m45 -1 c3 -5 -3 -10 -15 -10 -12 0 -18 5 -15 10 3 6 10 10 15 10 5 0 12 -4 15
-10z"/>
<path d="M1714 966 c-12 -31 0 -61 24 -60 12 0 21 -4 19 -10 -2 -6 -15 -10
-28 -8 -17 2 -21 0 -12 -9 6 -6 19 -9 29 -7 15 2 20 14 22 53 3 48 2 51 -23
53 -15 1 -28 -4 -31 -12z m41 -26 c0 -27 -22 -39 -31 -16 -8 22 3 49 19 43 6
-2 12 -14 12 -27z"/>
<path d="M1881 935 l1 -40 8 34 c4 18 14 37 21 42 10 6 7 8 -9 6 -19 -1 -22
-7 -21 -42z"/>
<path d="M1800 910 c0 -5 5 -10 11 -10 5 0 7 5 4 10 -3 6 -8 10 -11 10 -2 0
-4 -4 -4 -10z"/>
<path d="M3168 753 c1062 -2 2802 -2 3865 0 1062 1 193 2 -1933 2 -2126 0
-2995 -1 -1932 -2z"/>
</g>
</svg>
