<?xml version="1.0" encoding="UTF-8"?><svg id="Vrstva_2" xmlns="http://www.w3.org/2000/svg" viewBox="0 0 249.95 106.38"><defs><style>.cls-1,.cls-2,.cls-3{stroke:#231f20;}.cls-1,.cls-2,.cls-3,.cls-4,.cls-5,.cls-6{stroke-miterlimit:10;}.cls-1,.cls-4,.cls-5,.cls-6{fill:none;}.cls-2{fill:#e6e7e8;}.cls-3{fill:#c7c8ca;}.cls-7{fill:#ac9b8c;}.cls-7,.cls-8,.cls-9,.cls-10,.cls-11{font-size:6px;}.cls-7,.cls-9,.cls-10,.cls-11{font-family:NHaasGroteskDSPro-75Bd, 'Neue Haas Grotesk Display Pro';}.cls-8{font-family:NHaasGroteskDSPro-55Rg, 'Neue Haas Grotesk Display Pro';}.cls-8,.cls-9,.cls-12{fill:#231f20;}.cls-13{letter-spacing:0em;}.cls-14{letter-spacing:0em;}.cls-4{stroke:#fac998;}.cls-15{letter-spacing:0em;}.cls-5{stroke:#add7a3;}.cls-16{letter-spacing:0em;}.cls-17{letter-spacing:-.01em;}.cls-10{fill:#fac998;}.cls-11{fill:#add7a3;}.cls-18{letter-spacing:-.02em;}.cls-19{letter-spacing:-.01em;}.cls-6{stroke:#ac9b8c;}.cls-20{letter-spacing:-.02em;}.cls-21{letter-spacing:0em;}</style></defs><g id="Vrstva_1-2"><rect class="cls-1" x="30.43" y="35.4" width="29.84" height="7.78"/><rect class="cls-3" x="30.39" y="43.22" width="14.97" height="21.02"/><rect class="cls-3" x="45.3" y="43.22" width="14.97" height="21.02"/><circle class="cls-2" cx="37.87" cy="53.73" r="4.28"/><circle class="cls-2" cx="52.79" cy="53.73" r="4.28"/><line class="cls-2" x1="30.41" y1="48.63" x2="60.27" y2="48.63"/><line class="cls-2" x1="30.39" y1="58.84" x2="60.27" y2="58.84"/><path class="cls-12" d="m248.95,1v17.18h-60.23V1h60.23m.35-1h-60.94c-.36,0-.65.29-.65.65v17.88c0,.36.29.65.65.65h60.94c.36,0,.65-.29.65-.65V.65c0-.36-.29-.65-.65-.65h0Z"/><text class="cls-8" transform="translate(.5 32.29)"><tspan x="0" y="0">LIN</tspan><tspan class="cls-16" x="8.85" y="0">E</tspan><tspan x="12.52" y="0">S</tspan></text><text class="cls-8" transform="translate(32.9 41.34)"><tspan x="0" y="0">+ DC out -</tspan></text><rect class="cls-1" x=".55" y="35.4" width="29.84" height="7.78"/><rect class="cls-3" x=".5" y="43.22" width="14.97" height="21.02"/><rect class="cls-3" x="15.42" y="43.22" width="14.97" height="21.02"/><circle class="cls-2" cx="7.98" cy="53.73" r="4.28"/><circle class="cls-2" cx="22.9" cy="53.73" r="4.28"/><line class="cls-2" x1=".52" y1="48.63" x2="30.39" y2="48.63"/><line class="cls-2" x1=".5" y1="58.84" x2="30.39" y2="58.84"/><text class="cls-8" transform="translate(3.66 41.34)"><tspan x="0" y="0">+ LIN</tspan><tspan class="cls-19" x="13.16" y="0">E</tspan><tspan x="16.84" y="0">S -</tspan></text><path class="cls-4" d="m37.87,32.56V10.95c0-1.79,1.45-3.23,3.23-3.23h141.86"/><path class="cls-5" d="m52.48,32.31v-15.88c0-1.79,1.45-3.23,3.23-3.23h127.24"/><path class="cls-1" d="m236.46,22.6v80.05c0,1.79-1.45,3.23-3.23,3.23H11.06c-1.79,0-3.23-1.45-3.23-3.23v-34.65"/><path class="cls-6" d="m203.29,23.45v67.55c0,1.79-1.45,3.23-3.23,3.23H26.14c-1.79,0-3.23-1.45-3.23-3.23v-22.94"/><text class="cls-8" transform="translate(190.34 8.18)"><tspan x="0" y="0">GPS 4500</tspan><tspan class="cls-17" x="0" y="7.2">(</tspan><tspan class="cls-13" x="1.76" y="7.2">s</tspan><tspan class="cls-14" x="4.6" y="7.2">y</tspan><tspan class="cls-17" x="7.54" y="7.2">n</tspan><tspan class="cls-14" x="10.64" y="7.2">th</tspan><tspan class="cls-17" x="15.65" y="7.2">e</tspan><tspan x="18.79" y="7.2">tic DCF output)</tspan></text></g><g id="EN"><text class="cls-10" transform="translate(37.21 5.59)"><tspan class="cls-18" x="0" y="0">y</tspan><tspan x="3.05" y="0">ell</tspan><tspan class="cls-20" x="9.35" y="0">o</tspan><tspan x="12.71" y="0">w</tspan></text><text class="cls-11" transform="translate(54.44 19.18)"><tspan x="0" y="0">g</tspan><tspan class="cls-19" x="3.43" y="0">r</tspan><tspan x="5.67" y="0">een</tspan></text><text class="cls-9" transform="translate(11.58 104.36)"><tspan x="0" y="0">whi</tspan><tspan class="cls-21" x="9.56" y="0">t</tspan><tspan x="11.64" y="0">e</tspan></text><text class="cls-7" transform="translate(25.04 91.7)"><tspan x="0" y="0">b</tspan><tspan class="cls-19" x="3.52" y="0">r</tspan><tspan class="cls-20" x="5.75" y="0">o</tspan><tspan class="cls-15" x="9.11" y="0">wn</tspan></text></g></svg>